<svg id="svg" version="1.1" xmlns="http://www.w3.org/2000/svg" xmlns:xlink="http://www.w3.org/1999/xlink" width="400" height="400" viewBox="0, 0, 400,400"><g id="svgg"><path id="path0" d="M4.985 13.299 C 4.880 13.575,4.840 30.000,4.897 49.800 L 5.000 85.800 8.571 85.800 L 12.142 85.800 12.493 84.600 C 12.686 83.940,13.013 82.153,13.220 80.629 C 13.553 78.171,14.507 74.987,15.532 72.909 C 15.724 72.519,16.312 71.300,16.838 70.200 C 18.661 66.387,21.818 62.899,25.947 60.133 C 28.101 58.690,28.947 58.382,33.400 57.417 C 34.720 57.132,36.307 56.696,36.926 56.449 C 37.545 56.202,38.895 55.998,39.926 55.995 C 40.957 55.993,42.790 55.688,44.000 55.319 C 47.282 54.316,129.937 54.004,131.439 54.989 L 132.400 55.618 132.400 64.947 C 132.400 75.495,132.493 75.178,129.200 75.913 C 128.210 76.134,125.330 77.064,122.800 77.980 C 120.270 78.897,117.660 79.794,117.000 79.975 C 116.340 80.156,115.260 80.594,114.600 80.949 C 113.940 81.305,113.179 81.596,112.909 81.598 C 112.639 81.599,111.019 82.241,109.309 83.024 C 107.599 83.807,105.660 84.688,105.000 84.981 C 100.289 87.072,86.761 94.005,86.071 94.681 C 85.781 94.967,85.368 95.200,85.155 95.200 C 84.942 95.200,84.280 95.536,83.684 95.948 C 83.088 96.359,81.160 97.643,79.400 98.801 C 77.640 99.959,75.750 101.318,75.200 101.822 C 74.650 102.326,73.355 103.337,72.322 104.069 C 65.354 109.006,61.940 112.019,55.400 119.000 C 54.369 120.100,52.238 122.355,50.663 124.011 C 46.589 128.295,43.998 131.612,41.144 136.200 C 39.775 138.400,38.103 140.945,37.428 141.855 C 35.428 144.552,29.307 155.490,28.169 158.400 C 27.787 159.378,27.230 160.559,26.849 161.200 C 26.358 162.026,24.427 167.860,24.025 169.732 C 23.844 170.575,23.494 171.466,23.248 171.712 C 23.002 171.958,22.799 172.529,22.798 172.980 C 22.796 173.431,22.533 174.303,22.212 174.917 C 21.892 175.531,21.509 176.701,21.361 177.517 C 21.214 178.333,20.847 179.486,20.547 180.080 C 20.246 180.674,20.000 181.703,20.000 182.365 C 20.000 183.028,19.640 184.484,19.200 185.600 C 18.760 186.716,18.400 188.292,18.400 189.101 C 18.400 189.911,18.148 191.299,17.840 192.187 C 16.690 195.504,14.600 216.277,14.600 224.400 C 14.600 232.345,16.574 252.211,17.800 256.600 C 18.107 257.700,18.458 259.482,18.580 260.560 C 18.701 261.637,18.995 262.753,19.232 263.039 C 19.469 263.325,19.809 264.513,19.988 265.679 C 20.166 266.846,20.505 268.340,20.741 269.000 C 20.977 269.660,21.573 271.550,22.066 273.200 C 22.559 274.850,23.195 276.555,23.481 276.989 C 23.766 277.423,24.000 278.116,24.000 278.529 C 24.000 278.941,24.252 279.846,24.559 280.540 C 24.867 281.233,25.427 282.790,25.804 284.000 C 26.454 286.089,27.706 289.095,28.469 290.400 C 28.662 290.730,29.365 292.080,30.031 293.400 C 30.698 294.720,31.400 296.070,31.593 296.400 C 31.785 296.730,32.054 297.270,32.190 297.600 C 32.782 299.033,37.601 306.808,39.174 308.868 C 39.958 309.896,41.410 312.042,42.400 313.638 C 43.390 315.235,44.602 317.004,45.094 317.570 C 45.585 318.137,46.215 318.862,46.494 319.181 C 46.772 319.501,47.506 320.401,48.125 321.181 C 52.949 327.262,63.698 337.860,69.680 342.434 C 72.254 344.401,74.464 346.180,74.591 346.386 C 75.093 347.198,87.540 356.000,88.187 356.000 C 88.322 356.000,88.920 356.334,89.516 356.743 C 93.667 359.588,109.185 367.469,116.400 370.397 C 117.610 370.888,119.191 371.539,119.914 371.845 C 120.636 372.150,121.446 372.401,121.714 372.402 C 121.981 372.404,122.650 372.635,123.200 372.917 C 124.133 373.395,126.235 374.037,131.600 375.480 C 132.810 375.806,134.610 376.340,135.600 376.668 C 136.590 376.995,138.354 377.415,139.521 377.600 C 140.687 377.785,141.883 378.137,142.179 378.382 C 142.474 378.627,143.679 378.936,144.858 379.069 C 146.036 379.202,147.327 379.478,147.727 379.684 C 148.423 380.041,150.835 380.481,159.253 381.786 C 161.372 382.115,163.588 382.567,164.179 382.792 C 164.769 383.016,166.688 383.200,168.443 383.200 C 170.198 383.200,173.021 383.515,174.717 383.900 C 179.370 384.956,220.630 384.956,225.283 383.900 C 226.979 383.515,229.802 383.200,231.557 383.200 C 233.312 383.200,235.252 383.008,235.868 382.774 C 236.484 382.540,238.701 382.094,240.794 381.784 C 248.062 380.705,251.551 380.054,252.347 379.628 C 252.787 379.393,253.795 379.200,254.587 379.200 C 255.378 379.200,256.695 378.905,257.513 378.545 C 258.331 378.184,259.810 377.750,260.800 377.578 C 261.790 377.407,263.500 376.971,264.600 376.609 C 265.700 376.247,267.230 375.791,268.000 375.595 C 271.324 374.750,275.461 373.539,276.200 373.195 C 277.160 372.747,280.066 371.712,281.998 371.130 C 282.767 370.898,283.752 370.459,284.187 370.154 C 284.622 369.849,285.366 369.600,285.840 369.600 C 286.314 369.600,286.926 369.330,287.200 369.000 C 287.474 368.670,287.927 368.400,288.206 368.400 C 288.649 368.400,296.762 364.569,298.400 363.587 C 298.730 363.389,299.990 362.702,301.200 362.060 C 302.410 361.419,304.210 360.435,305.200 359.875 C 306.190 359.314,307.900 358.383,309.000 357.805 C 310.100 357.227,311.478 356.449,312.063 356.077 C 313.915 354.898,321.375 349.827,322.000 349.322 C 322.330 349.056,323.860 347.814,325.400 346.562 C 326.940 345.311,329.562 343.250,331.226 341.982 C 339.293 335.837,359.200 314.048,359.200 311.363 C 359.200 311.264,360.055 310.062,361.100 308.691 C 362.145 307.321,363.218 305.840,363.484 305.400 C 364.782 303.253,367.050 299.291,367.490 298.400 C 367.762 297.850,368.197 297.040,368.456 296.600 C 369.246 295.256,369.513 294.735,371.425 290.800 C 373.979 285.543,374.228 284.952,375.136 282.000 C 376.250 278.375,376.784 276.865,377.650 274.889 C 378.063 273.948,378.400 272.812,378.400 272.363 C 378.400 271.914,378.611 271.154,378.869 270.674 C 379.316 269.842,379.801 267.984,380.978 262.600 C 381.266 261.280,381.704 259.693,381.951 259.074 C 382.198 258.455,382.400 257.263,382.400 256.426 C 382.400 255.589,382.760 253.777,383.200 252.400 C 383.707 250.814,384.002 248.779,384.006 246.848 C 384.010 245.172,384.273 242.720,384.592 241.400 C 385.319 238.389,385.470 210.357,384.769 208.526 C 384.532 207.907,384.200 205.146,384.031 202.390 C 383.863 199.635,383.510 196.979,383.247 196.488 C 382.984 195.997,382.662 194.382,382.530 192.898 C 382.398 191.414,382.132 189.892,381.939 189.515 C 381.746 189.138,381.328 187.608,381.011 186.115 C 379.885 180.815,379.299 178.533,378.852 177.698 C 378.604 177.233,378.400 176.431,378.400 175.915 C 378.400 175.400,378.136 174.601,377.814 174.141 C 377.491 173.681,377.053 172.605,376.841 171.752 C 375.796 167.554,372.995 160.063,371.506 157.482 C 370.898 156.428,370.400 155.376,370.400 155.145 C 370.400 154.915,370.040 154.269,369.600 153.709 C 369.160 153.150,368.800 152.378,368.800 151.995 C 368.800 151.612,368.530 151.074,368.200 150.800 C 367.870 150.526,367.600 150.167,367.600 150.001 C 367.600 149.726,366.716 148.129,364.600 144.579 C 364.160 143.841,362.900 141.945,361.800 140.365 C 360.700 138.785,359.620 137.196,359.400 136.832 C 357.253 133.287,353.657 128.465,351.200 125.838 C 339.702 113.542,336.357 110.226,333.860 108.649 C 333.233 108.253,330.250 106.010,327.231 103.664 C 324.213 101.319,321.396 99.181,320.971 98.913 C 320.547 98.645,319.236 97.835,318.057 97.113 C 316.878 96.391,315.438 95.489,314.857 95.110 C 313.054 93.932,299.049 86.791,295.000 84.984 C 294.340 84.689,292.401 83.807,290.691 83.024 C 288.981 82.241,287.397 81.600,287.171 81.600 C 286.945 81.600,286.184 81.301,285.480 80.937 C 284.776 80.572,283.660 80.132,283.000 79.960 C 282.340 79.787,279.730 78.897,277.200 77.980 C 274.670 77.064,271.804 76.153,270.830 75.956 C 267.535 75.290,267.600 75.511,267.600 64.967 C 267.600 56.915,267.688 55.570,268.249 55.009 C 269.252 54.005,352.665 54.299,356.000 55.318 C 357.210 55.688,359.151 55.993,360.313 55.995 C 361.475 55.998,363.005 56.242,363.713 56.537 C 364.421 56.833,365.720 57.204,366.600 57.361 C 373.620 58.620,380.142 63.571,383.251 70.000 C 385.995 75.676,386.400 76.691,386.400 77.894 C 386.400 78.557,386.670 79.865,387.000 80.800 C 387.330 81.735,387.600 83.003,387.600 83.618 C 387.600 85.867,387.812 86.000,391.400 86.000 C 393.921 86.000,394.768 85.862,394.936 85.422 C 395.234 84.646,395.244 14.916,394.947 13.731 L 394.713 12.800 320.099 12.800 L 245.485 12.800 245.748 15.700 C 245.893 17.295,246.178 20.130,246.381 22.000 C 246.584 23.870,246.761 26.840,246.775 28.600 C 246.789 30.360,247.070 33.211,247.400 34.935 C 247.732 36.668,248.000 40.280,248.000 43.009 C 248.000 46.023,248.247 49.088,248.635 50.874 C 248.984 52.483,249.396 56.950,249.550 60.800 C 249.704 64.651,249.965 68.020,250.131 68.288 C 250.296 68.555,250.672 72.477,250.967 77.002 C 251.559 86.099,251.647 86.364,254.348 87.241 C 255.147 87.500,256.880 88.214,258.200 88.827 C 259.520 89.439,262.310 90.607,264.400 91.421 C 266.490 92.235,268.399 93.059,268.642 93.251 C 268.885 93.444,269.934 94.054,270.972 94.606 C 272.011 95.158,273.650 96.193,274.614 96.905 C 275.578 97.617,277.744 99.190,279.426 100.400 C 281.109 101.610,282.872 102.933,283.343 103.340 C 283.814 103.746,285.163 104.916,286.341 105.940 C 287.519 106.963,288.724 107.939,289.020 108.108 C 290.252 108.814,299.576 120.144,301.797 123.634 C 302.019 123.982,302.913 125.332,303.785 126.634 C 305.766 129.592,307.821 133.531,308.880 136.400 C 309.664 138.523,311.826 143.396,313.021 145.732 C 313.339 146.355,313.600 147.170,313.600 147.543 C 313.600 147.917,313.864 148.599,314.186 149.059 C 314.509 149.519,314.948 150.595,315.162 151.448 C 315.502 152.798,317.112 157.670,318.452 161.400 C 318.689 162.060,319.043 163.522,319.239 164.650 C 319.435 165.777,319.865 167.217,320.195 167.850 C 320.525 168.482,320.796 169.653,320.798 170.451 C 320.799 171.249,321.058 172.519,321.373 173.273 C 321.942 174.636,322.408 177.053,323.210 182.800 C 323.440 184.450,323.833 186.790,324.083 188.000 C 325.228 193.538,326.161 217.987,325.610 228.020 C 325.339 232.959,324.988 239.340,324.830 242.200 C 324.672 245.060,324.340 248.210,324.092 249.200 C 323.844 250.190,323.457 252.350,323.231 254.000 C 322.670 258.094,321.801 262.369,321.254 263.726 C 321.004 264.345,320.800 265.374,320.800 266.011 C 320.800 266.649,320.440 268.084,320.000 269.200 C 319.560 270.316,319.200 271.690,319.200 272.253 C 319.200 272.816,318.951 273.754,318.646 274.338 C 318.342 274.922,317.635 276.840,317.076 278.600 C 315.469 283.657,315.160 284.506,314.356 286.079 C 313.940 286.893,313.600 287.775,313.600 288.041 C 313.600 288.306,313.168 289.440,312.639 290.561 C 310.290 295.546,308.827 298.758,307.975 300.800 C 307.471 302.010,306.730 303.478,306.329 304.062 C 305.928 304.646,305.600 305.211,305.600 305.317 C 305.600 305.530,301.450 311.941,300.869 312.625 C 300.671 312.859,300.277 313.483,299.993 314.012 C 299.387 315.145,294.402 322.109,293.988 322.400 C 293.832 322.510,292.569 324.040,291.182 325.800 C 286.277 332.022,269.953 347.200,268.167 347.200 C 268.002 347.200,267.582 347.481,267.234 347.824 C 266.533 348.513,263.226 350.691,260.415 352.313 C 259.417 352.890,258.507 353.492,258.394 353.652 C 257.979 354.238,250.116 357.938,247.400 358.826 C 245.860 359.329,244.245 359.979,243.811 360.270 C 243.377 360.562,242.747 360.801,242.411 360.802 C 242.075 360.804,241.272 361.080,240.626 361.417 C 239.981 361.754,238.811 362.197,238.026 362.402 C 237.242 362.607,235.250 363.155,233.600 363.620 C 231.950 364.084,229.430 364.696,228.000 364.978 C 226.570 365.261,224.893 365.697,224.274 365.946 C 223.655 366.196,222.022 366.400,220.647 366.400 C 219.271 366.400,217.168 366.715,215.973 367.100 C 212.722 368.147,187.420 368.147,183.742 367.100 C 182.391 366.715,180.287 366.400,179.068 366.400 C 177.849 366.400,176.345 366.198,175.726 365.952 C 175.107 365.705,173.430 365.266,172.000 364.975 C 168.500 364.263,164.902 363.367,163.200 362.784 C 159.418 361.489,157.293 360.702,156.200 360.192 C 155.540 359.884,153.740 359.198,152.200 358.667 C 148.733 357.473,143.898 355.208,141.882 353.834 C 141.047 353.265,140.302 352.800,140.227 352.800 C 140.113 352.800,137.447 351.078,132.642 347.901 C 126.054 343.546,115.915 334.258,109.966 327.129 C 104.797 320.935,100.800 315.565,100.800 314.816 C 100.800 314.624,100.647 314.407,100.459 314.333 C 100.142 314.209,95.954 307.998,94.974 306.200 C 92.049 300.830,91.200 299.167,91.200 298.808 C 91.200 298.392,89.066 293.588,88.354 292.400 C 87.816 291.503,87.360 290.455,86.349 287.800 C 85.847 286.480,85.314 285.220,85.164 285.000 C 85.015 284.780,84.759 283.970,84.595 283.200 C 84.432 282.430,84.051 281.445,83.749 281.011 C 83.447 280.577,83.199 279.767,83.198 279.211 C 83.196 278.655,82.903 277.660,82.545 277.000 C 82.188 276.340,81.746 275.170,81.564 274.400 C 81.382 273.630,80.848 271.650,80.377 270.000 C 79.907 268.350,79.274 265.693,78.972 264.095 C 78.670 262.497,78.238 260.844,78.011 260.421 C 77.785 259.999,77.592 258.786,77.582 257.726 C 77.573 256.667,77.295 255.080,76.965 254.200 C 76.635 253.320,76.273 251.160,76.161 249.400 C 76.049 247.640,75.667 244.670,75.311 242.800 C 74.499 238.535,74.384 200.012,75.170 195.600 C 75.425 194.170,75.786 191.110,75.973 188.800 C 76.159 186.490,76.602 183.812,76.956 182.850 C 77.310 181.887,77.600 180.120,77.600 178.923 C 77.600 177.727,77.809 176.356,78.066 175.878 C 78.322 175.399,78.761 173.836,79.041 172.404 C 80.118 166.907,80.682 164.569,81.133 163.726 C 81.390 163.246,81.600 162.343,81.600 161.720 C 81.600 161.098,81.960 159.916,82.400 159.096 C 82.840 158.275,83.206 157.197,83.213 156.701 C 83.220 156.206,83.490 155.451,83.813 155.024 C 84.136 154.596,84.400 153.904,84.400 153.484 C 84.400 153.064,84.643 152.154,84.940 151.460 C 85.237 150.767,85.882 149.120,86.373 147.800 C 86.864 146.480,87.868 144.140,88.603 142.600 C 89.338 141.060,90.778 137.781,91.802 135.314 C 92.826 132.846,94.009 130.388,94.432 129.850 C 94.854 129.313,95.200 128.690,95.200 128.465 C 95.200 128.241,95.425 127.819,95.700 127.529 C 95.975 127.238,96.740 126.190,97.400 125.200 C 98.060 124.210,98.738 123.220,98.907 123.000 C 99.076 122.780,100.573 120.808,102.234 118.618 C 106.619 112.834,109.783 109.194,111.651 107.786 C 111.953 107.558,113.655 106.118,115.433 104.586 C 117.211 103.054,119.461 101.268,120.433 100.619 C 121.405 99.969,122.920 98.873,123.800 98.184 C 126.262 96.257,131.851 93.102,135.400 91.636 C 138.676 90.283,141.425 89.064,143.200 88.179 C 143.750 87.904,144.957 87.477,145.882 87.229 C 148.550 86.515,148.799 86.058,148.807 81.871 C 148.811 79.852,149.081 76.940,149.407 75.400 C 149.733 73.860,150.013 70.980,150.028 69.000 C 150.044 67.020,150.216 63.960,150.411 62.200 C 150.605 60.440,151.031 55.356,151.357 50.902 C 151.683 46.448,152.090 42.578,152.262 42.302 C 152.433 42.026,152.697 38.560,152.849 34.600 C 153.014 30.296,153.387 26.307,153.776 24.682 C 154.226 22.799,154.391 20.587,154.313 17.482 L 154.200 13.000 79.688 12.899 C 20.289 12.818,5.137 12.900,4.985 13.299 " stroke="none" fill="#040404" fill-rule="evenodd"></path><path id="path1" d="M243.911 9.894 L 242.736 10.388 242.969 13.494 C 243.096 15.202,243.369 20.290,243.574 24.800 C 243.780 29.310,244.156 33.720,244.410 34.600 C 244.664 35.480,245.039 39.080,245.243 42.600 C 245.447 46.120,245.781 51.880,245.986 55.400 C 246.191 58.920,246.547 62.880,246.777 64.200 C 247.008 65.520,247.294 69.030,247.413 72.000 C 247.532 74.970,247.724 77.760,247.840 78.200 C 247.955 78.640,248.185 80.710,248.351 82.800 C 248.734 87.632,249.263 88.721,251.600 89.487 C 252.590 89.812,253.571 90.240,253.780 90.439 C 253.989 90.637,254.563 90.800,255.056 90.800 C 255.549 90.800,256.052 90.960,256.173 91.156 C 256.294 91.351,256.889 91.635,257.496 91.787 C 259.002 92.162,261.202 93.198,262.354 94.074 C 262.879 94.473,263.615 94.800,263.991 94.800 C 264.367 94.800,265.467 95.243,266.437 95.785 C 267.407 96.327,268.945 97.133,269.856 97.576 C 270.768 98.018,272.344 99.015,273.360 99.790 C 274.376 100.566,275.294 101.200,275.401 101.200 C 275.700 101.200,282.004 106.070,283.169 107.200 C 283.736 107.751,284.830 108.671,285.600 109.245 C 287.576 110.718,291.600 114.735,291.600 115.234 C 291.600 115.463,292.050 116.135,292.601 116.726 C 294.306 118.557,298.800 124.342,298.800 124.705 C 298.800 124.895,299.340 125.568,300.000 126.200 C 300.660 126.832,301.200 127.513,301.200 127.713 C 301.200 127.913,301.534 128.554,301.942 129.138 C 302.350 129.722,302.800 130.681,302.942 131.269 C 303.084 131.857,303.650 132.873,304.200 133.527 C 304.750 134.181,305.200 134.870,305.199 135.058 C 305.198 135.353,305.654 136.377,307.263 139.695 C 307.448 140.077,307.604 140.617,307.609 140.895 C 307.614 141.173,307.970 141.850,308.400 142.400 C 308.830 142.950,309.186 143.822,309.191 144.337 C 309.196 144.852,309.560 145.731,310.000 146.291 C 310.440 146.850,310.800 147.698,310.800 148.174 C 310.800 148.650,310.959 149.211,311.153 149.420 C 311.621 149.922,313.200 154.471,313.200 155.314 C 313.200 155.678,313.560 156.617,314.000 157.400 C 314.440 158.183,314.800 159.145,314.800 159.537 C 314.800 159.929,315.160 160.995,315.600 161.906 C 316.040 162.816,316.400 164.189,316.400 164.957 C 316.400 165.725,316.580 166.464,316.800 166.600 C 317.020 166.736,317.200 167.319,317.200 167.895 C 317.200 168.966,317.820 171.249,318.449 172.495 C 318.642 172.877,318.806 173.957,318.813 174.895 C 318.820 175.833,319.174 177.590,319.600 178.800 C 320.029 180.021,320.380 182.086,320.387 183.439 C 320.395 184.951,320.666 186.394,321.099 187.239 C 321.617 188.248,321.850 189.945,321.999 193.800 C 322.110 196.660,322.345 199.224,322.523 199.499 C 323.017 200.262,322.977 237.905,322.482 238.503 C 322.255 238.776,322.009 241.160,321.935 243.800 C 321.834 247.380,321.622 248.946,321.100 249.961 C 320.634 250.868,320.400 252.239,320.400 254.067 C 320.400 255.576,320.248 257.123,320.062 257.505 C 319.877 257.887,319.517 258.603,319.262 259.095 C 319.008 259.587,318.800 260.791,318.800 261.771 C 318.800 262.751,318.640 263.652,318.444 263.773 C 318.249 263.894,317.979 264.624,317.844 265.396 C 317.710 266.168,317.490 267.432,317.356 268.204 C 317.221 268.976,316.951 269.706,316.756 269.827 C 316.560 269.948,316.400 270.732,316.400 271.570 C 316.400 272.486,316.082 273.497,315.600 274.109 C 315.160 274.669,314.799 275.638,314.799 276.263 C 314.798 276.888,314.438 277.989,313.999 278.710 C 313.559 279.430,313.200 280.467,313.200 281.015 C 313.200 281.563,313.048 282.323,312.863 282.705 C 311.214 286.104,310.798 287.060,310.799 287.442 C 310.800 287.685,310.117 289.235,309.282 290.887 C 308.447 292.539,307.512 294.680,307.204 295.645 C 306.896 296.610,306.319 297.829,305.922 298.354 C 305.525 298.879,305.200 299.456,305.200 299.636 C 305.200 299.817,304.660 300.881,304.000 302.000 C 303.340 303.119,302.800 304.269,302.800 304.556 C 302.800 304.842,302.440 305.402,302.000 305.800 C 301.560 306.198,301.200 306.751,301.200 307.029 C 301.200 307.306,301.003 307.599,300.763 307.679 C 300.522 307.759,299.847 308.646,299.263 309.649 C 297.775 312.203,296.273 314.394,295.046 315.800 C 294.470 316.460,293.721 317.585,293.381 318.300 C 293.041 319.015,292.599 319.600,292.400 319.600 C 292.201 319.600,291.758 320.185,291.417 320.900 C 288.947 326.078,270.806 342.466,261.200 348.197 C 259.770 349.050,258.060 350.152,257.400 350.646 C 256.739 351.139,255.389 351.920,254.400 352.381 C 253.410 352.841,251.970 353.565,251.200 353.988 C 249.047 355.173,246.300 356.400,245.800 356.400 C 245.553 356.400,244.605 356.760,243.694 357.200 C 242.784 357.640,241.758 358.000,241.414 358.000 C 241.070 358.000,240.477 358.156,240.095 358.347 C 239.030 358.880,235.565 360.055,234.000 360.414 C 233.230 360.590,231.716 361.020,230.636 361.367 C 229.556 361.715,228.107 362.000,227.416 362.000 C 226.725 362.000,225.967 362.193,225.732 362.428 C 223.098 365.062,180.795 365.214,174.568 362.612 C 173.762 362.276,172.539 361.997,171.851 361.994 C 170.594 361.988,167.852 361.186,167.341 360.674 C 167.190 360.523,166.548 360.400,165.914 360.400 C 165.280 360.400,164.016 360.040,163.106 359.600 C 162.195 359.160,161.070 358.800,160.605 358.800 C 160.140 358.800,159.589 358.657,159.380 358.482 C 159.171 358.307,158.280 357.935,157.400 357.655 C 155.726 357.124,154.278 356.550,153.105 355.953 C 152.723 355.759,152.073 355.600,151.659 355.600 C 151.246 355.600,150.450 355.240,149.891 354.800 C 149.331 354.360,148.722 353.996,148.537 353.991 C 148.352 353.986,147.750 353.630,147.200 353.200 C 146.650 352.770,145.984 352.414,145.720 352.409 C 145.284 352.401,143.139 351.108,140.316 349.151 C 139.720 348.738,138.970 348.400,138.650 348.400 C 138.329 348.400,138.007 348.251,137.933 348.070 C 137.820 347.788,132.846 344.228,130.850 343.000 C 126.749 340.477,110.025 324.138,109.236 321.883 C 109.145 321.625,108.875 321.209,108.636 320.959 C 108.396 320.708,107.210 319.102,106.000 317.389 C 104.790 315.675,103.215 313.491,102.500 312.533 C 101.785 311.576,101.200 310.697,101.200 310.578 C 101.200 310.460,100.300 309.030,99.200 307.400 C 98.100 305.770,97.196 304.293,97.191 304.118 C 97.186 303.943,96.830 303.350,96.400 302.800 C 95.970 302.250,95.614 301.513,95.609 301.162 C 95.604 300.811,95.240 300.198,94.800 299.800 C 94.360 299.402,94.000 298.784,94.000 298.427 C 94.000 298.070,93.460 296.737,92.800 295.465 C 92.140 294.193,91.596 292.848,91.591 292.476 C 91.586 292.104,91.230 291.350,90.800 290.800 C 90.370 290.250,90.014 289.496,90.009 289.124 C 90.004 288.752,89.820 288.336,89.600 288.200 C 89.380 288.064,89.200 287.609,89.200 287.189 C 89.200 286.768,88.840 285.783,88.400 285.000 C 87.960 284.217,87.600 283.225,87.600 282.798 C 87.600 282.370,87.241 281.430,86.801 280.710 C 86.362 279.989,86.002 278.916,86.001 278.324 C 86.001 277.732,85.856 277.158,85.679 277.049 C 85.503 276.940,85.107 275.928,84.800 274.800 C 84.493 273.672,84.097 272.660,83.921 272.551 C 83.744 272.442,83.600 271.731,83.600 270.971 C 83.600 270.211,83.442 269.277,83.249 268.895 C 82.582 267.574,82.000 265.338,82.000 264.095 C 82.000 263.409,81.846 262.752,81.657 262.635 C 81.326 262.431,80.662 259.501,80.199 256.200 C 79.686 252.545,79.175 249.258,78.767 247.000 C 78.529 245.680,78.191 242.440,78.016 239.800 C 77.841 237.160,77.423 231.940,77.087 228.200 C 76.431 220.902,76.479 211.352,77.197 206.400 C 77.436 204.750,77.791 200.880,77.987 197.800 C 78.183 194.720,78.518 191.120,78.733 189.800 C 78.948 188.480,79.245 186.320,79.393 185.000 C 79.541 183.680,79.814 182.240,79.999 181.800 C 80.185 181.360,80.442 179.842,80.570 178.428 C 80.698 177.013,81.072 175.444,81.401 174.942 C 81.731 174.439,82.000 173.458,82.000 172.760 C 82.000 171.347,82.755 168.406,83.267 167.820 C 83.450 167.611,83.600 166.786,83.600 165.987 C 83.600 165.187,83.723 164.410,83.874 164.259 C 84.287 163.846,85.185 161.110,85.207 160.200 C 85.217 159.760,85.477 159.068,85.784 158.663 C 86.091 158.258,86.461 157.224,86.606 156.365 C 86.751 155.507,87.034 154.703,87.235 154.578 C 87.436 154.454,87.600 153.995,87.600 153.557 C 87.600 153.119,87.960 152.016,88.400 151.106 C 88.840 150.195,89.200 149.231,89.200 148.963 C 89.200 148.695,89.586 147.694,90.057 146.738 C 90.528 145.782,91.045 144.640,91.204 144.200 C 91.476 143.453,92.876 140.011,93.644 138.200 C 93.831 137.760,94.169 136.950,94.397 136.400 C 94.624 135.850,95.193 134.770,95.661 134.000 C 96.129 133.230,96.960 131.790,97.508 130.800 C 98.055 129.810,98.727 128.730,99.000 128.400 C 99.272 128.070,99.564 127.616,99.648 127.391 C 99.885 126.754,102.423 123.351,104.275 121.187 C 105.197 120.110,106.666 118.188,107.540 116.915 C 109.368 114.252,113.644 110.012,116.700 107.831 C 117.855 107.006,118.800 106.207,118.800 106.054 C 118.800 105.901,119.805 105.061,121.033 104.188 C 122.261 103.315,124.376 101.773,125.733 100.763 C 128.247 98.890,133.450 95.920,136.800 94.446 C 137.350 94.204,138.070 93.852,138.400 93.665 C 140.001 92.756,140.840 92.400,141.382 92.400 C 141.709 92.400,142.617 92.040,143.400 91.600 C 144.183 91.160,145.149 90.800,145.545 90.800 C 145.942 90.800,146.400 90.665,146.562 90.500 C 146.725 90.335,147.684 89.930,148.693 89.600 C 151.848 88.568,152.128 87.843,152.270 80.322 C 152.338 76.753,152.568 73.285,152.783 72.616 C 152.997 71.947,153.362 68.430,153.595 64.800 C 153.828 61.170,154.101 57.930,154.202 57.600 C 154.494 56.647,155.260 48.693,155.627 42.800 C 155.812 39.830,156.145 34.880,156.367 31.800 C 157.624 14.372,157.625 10.655,156.372 9.985 C 155.025 9.264,3.353 9.674,2.636 10.400 C 2.122 10.920,2.031 16.079,1.949 49.159 L 1.854 87.319 3.027 88.264 C 4.139 89.160,4.461 89.204,9.195 89.105 L 14.191 89.000 14.768 87.800 C 15.086 87.140,15.425 85.652,15.523 84.493 C 15.621 83.334,15.858 82.288,16.050 82.169 C 16.243 82.050,16.401 81.108,16.401 80.076 C 16.402 78.907,16.704 77.706,17.201 76.890 C 17.641 76.170,18.004 75.270,18.009 74.890 C 18.014 74.511,18.370 73.750,18.800 73.200 C 19.230 72.650,19.586 71.965,19.591 71.678 C 19.617 70.186,25.973 62.800,27.232 62.800 C 27.475 62.800,28.131 62.440,28.691 62.000 C 29.250 61.560,30.033 61.200,30.430 61.200 C 30.828 61.200,31.264 61.020,31.400 60.800 C 31.536 60.580,32.231 60.400,32.944 60.400 C 33.657 60.400,34.425 60.215,34.651 59.989 C 36.409 58.231,128.800 56.831,128.800 58.563 C 128.800 58.877,129.025 59.208,129.300 59.300 C 129.661 59.420,129.837 61.074,129.934 65.233 C 130.091 71.949,129.950 72.240,126.000 73.353 C 116.269 76.095,101.668 82.193,94.000 86.717 C 93.230 87.172,91.160 88.284,89.400 89.189 C 81.327 93.339,75.669 97.063,69.280 102.432 C 68.994 102.672,67.644 103.618,66.279 104.534 C 62.719 106.924,60.400 108.857,60.400 109.434 C 60.400 109.708,60.226 109.993,60.012 110.067 C 59.407 110.275,48.400 121.270,48.400 121.667 C 48.400 121.862,47.422 123.051,46.227 124.311 C 43.664 127.012,40.000 131.896,40.000 132.612 C 40.000 132.888,39.730 133.218,39.400 133.345 C 39.070 133.471,38.800 133.769,38.800 134.006 C 38.800 134.242,37.900 135.770,36.800 137.400 C 35.700 139.030,34.800 140.486,34.800 140.635 C 34.800 140.784,34.485 141.199,34.100 141.557 C 33.715 141.916,33.158 142.636,32.862 143.159 C 32.567 143.682,31.982 144.720,31.562 145.467 C 31.143 146.214,30.800 147.061,30.800 147.350 C 30.800 147.639,30.440 148.202,30.000 148.600 C 29.560 148.998,29.200 149.740,29.200 150.248 C 29.200 150.762,28.846 151.362,28.400 151.600 C 27.960 151.835,27.596 152.427,27.591 152.914 C 27.586 153.401,27.230 154.250,26.800 154.800 C 26.370 155.350,26.014 155.991,26.009 156.225 C 26.004 156.459,25.640 157.395,25.200 158.306 C 24.760 159.216,24.400 160.229,24.400 160.557 C 24.400 160.885,24.220 161.264,24.000 161.400 C 23.780 161.536,23.600 162.087,23.600 162.624 C 23.600 163.161,23.420 163.600,23.200 163.600 C 22.980 163.600,22.800 163.955,22.800 164.388 C 22.800 164.821,22.440 165.817,22.000 166.600 C 21.560 167.383,21.200 168.463,21.200 169.000 C 21.200 169.537,20.840 170.617,20.400 171.400 C 19.960 172.183,19.600 173.173,19.600 173.600 C 19.600 174.027,19.240 175.017,18.800 175.800 C 18.360 176.583,18.000 177.838,18.000 178.589 C 18.000 179.339,17.820 180.064,17.600 180.200 C 17.380 180.336,17.200 181.056,17.200 181.800 C 17.200 182.544,17.020 183.264,16.800 183.400 C 16.580 183.536,16.400 184.166,16.400 184.800 C 16.400 185.434,16.241 186.051,16.048 186.171 C 15.854 186.290,15.571 187.716,15.419 189.339 C 15.266 190.962,14.885 192.785,14.571 193.391 C 14.257 193.996,14.000 195.416,14.000 196.546 C 13.999 197.676,13.691 199.950,13.315 201.600 C 12.448 205.403,12.299 242.332,13.136 245.800 C 13.402 246.900,13.717 249.150,13.837 250.800 C 13.956 252.450,14.207 254.160,14.394 254.600 C 15.221 256.545,15.600 258.255,15.600 260.036 C 15.600 261.090,15.780 262.064,16.000 262.200 C 16.220 262.336,16.400 262.919,16.400 263.495 C 16.400 264.566,17.020 266.849,17.649 268.095 C 17.842 268.477,18.000 269.334,18.000 270.000 C 18.000 270.666,18.180 271.568,18.400 272.005 C 18.620 272.442,18.980 273.158,19.200 273.595 C 19.420 274.032,19.604 274.797,19.609 275.295 C 19.614 275.793,19.970 276.650,20.400 277.200 C 20.830 277.750,21.186 278.661,21.191 279.225 C 21.196 279.789,21.560 280.995,22.000 281.906 C 22.440 282.816,22.800 283.829,22.800 284.157 C 22.800 284.485,22.980 284.864,23.200 285.000 C 23.420 285.136,23.600 285.599,23.600 286.029 C 23.600 286.459,23.759 287.123,23.953 287.505 C 24.148 287.887,24.485 288.650,24.703 289.200 C 25.609 291.489,26.948 294.000,27.263 294.000 C 27.448 294.000,27.600 294.422,27.600 294.938 C 27.600 295.454,27.960 296.202,28.400 296.600 C 28.840 296.998,29.204 297.701,29.209 298.162 C 29.214 298.623,29.570 299.450,30.000 300.000 C 30.430 300.550,30.786 301.154,30.791 301.342 C 30.796 301.530,31.340 302.484,32.000 303.462 C 32.660 304.440,33.200 305.383,33.200 305.558 C 33.200 305.733,33.560 306.202,34.000 306.600 C 34.440 306.998,34.800 307.472,34.800 307.654 C 34.800 307.835,35.520 308.932,36.399 310.092 C 37.279 311.251,38.277 312.785,38.618 313.500 C 38.959 314.215,39.396 314.800,39.591 314.800 C 39.785 314.800,40.354 315.621,40.855 316.624 C 41.356 317.627,42.313 319.023,42.983 319.726 C 43.652 320.428,44.961 321.993,45.891 323.202 C 50.053 328.614,63.360 341.939,65.853 343.191 C 66.484 343.508,67.270 344.062,67.600 344.424 C 68.920 345.870,76.679 352.062,78.848 353.400 C 79.205 353.620,81.133 354.925,83.133 356.300 C 85.133 357.675,87.024 358.800,87.336 358.800 C 87.647 358.800,88.120 359.063,88.387 359.385 C 88.654 359.706,89.247 360.088,89.705 360.233 C 90.164 360.379,90.863 360.800,91.259 361.169 C 91.908 361.774,92.562 362.163,96.000 363.992 C 102.607 367.507,114.478 373.200,115.201 373.200 C 115.426 373.200,115.923 373.366,116.305 373.568 C 117.328 374.110,120.983 375.392,124.400 376.407 C 126.050 376.898,127.580 377.434,127.800 377.599 C 128.020 377.764,129.031 378.019,130.046 378.166 C 131.061 378.313,132.231 378.690,132.646 379.004 C 133.061 379.318,133.837 379.580,134.372 379.587 C 135.386 379.601,137.702 380.247,138.895 380.849 C 139.277 381.042,140.211 381.200,140.971 381.200 C 141.731 381.200,142.443 381.347,142.554 381.526 C 142.665 381.705,144.215 382.098,146.000 382.400 C 147.785 382.702,149.335 383.095,149.446 383.274 C 149.557 383.453,150.211 383.600,150.900 383.600 C 152.365 383.600,156.645 384.356,157.800 384.819 C 158.240 384.996,159.680 385.239,161.000 385.360 C 162.320 385.480,164.660 385.774,166.200 386.013 C 173.071 387.076,179.277 387.316,199.800 387.312 C 220.189 387.307,226.824 387.055,233.400 386.036 C 234.940 385.797,237.370 385.497,238.800 385.369 C 240.230 385.242,241.760 384.984,242.200 384.798 C 242.640 384.611,243.810 384.356,244.800 384.230 C 247.384 383.902,252.361 382.936,256.400 381.978 C 257.390 381.743,258.740 381.460,259.400 381.348 C 260.060 381.237,260.960 381.003,261.400 380.828 C 262.983 380.200,265.069 379.600,265.667 379.600 C 266.003 379.600,266.820 379.329,267.483 378.998 C 268.147 378.667,269.540 378.238,270.580 378.043 C 271.619 377.849,272.670 377.490,272.915 377.245 C 273.160 377.000,273.663 376.800,274.034 376.800 C 274.831 376.800,278.494 375.719,280.200 374.981 C 280.860 374.695,281.897 374.338,282.504 374.187 C 283.111 374.035,283.706 373.751,283.827 373.556 C 283.948 373.360,284.391 373.200,284.811 373.200 C 285.232 373.200,286.217 372.840,287.000 372.400 C 287.783 371.960,288.651 371.600,288.928 371.600 C 289.205 371.600,290.639 370.970,292.116 370.200 C 293.592 369.430,296.008 368.170,297.484 367.400 C 298.961 366.630,300.373 366.000,300.622 366.000 C 300.872 366.000,301.402 365.640,301.800 365.200 C 302.198 364.760,302.721 364.399,302.962 364.398 C 303.571 364.396,306.578 362.832,309.200 361.153 C 310.410 360.379,312.480 359.159,313.800 358.443 C 315.120 357.728,316.864 356.615,317.677 355.971 C 318.489 355.327,319.316 354.800,319.515 354.800 C 319.713 354.800,320.202 354.440,320.600 354.000 C 320.998 353.560,321.532 353.200,321.787 353.200 C 322.042 353.200,322.768 352.660,323.400 352.000 C 324.032 351.340,324.777 350.800,325.055 350.800 C 325.333 350.800,325.704 350.549,325.880 350.243 C 326.234 349.626,331.589 345.261,334.400 343.297 C 339.552 339.699,357.382 320.513,359.622 316.157 C 360.114 315.201,360.850 314.117,361.258 313.748 C 361.666 313.378,362.000 312.862,362.000 312.600 C 362.000 312.338,362.360 311.798,362.800 311.400 C 363.240 311.002,363.600 310.440,363.600 310.152 C 363.600 309.864,363.922 309.456,364.316 309.245 C 364.710 309.034,365.289 308.353,365.604 307.731 C 365.918 307.109,366.654 305.880,367.238 305.000 C 368.884 302.521,370.237 300.103,372.049 296.400 C 372.964 294.530,373.928 292.730,374.192 292.400 C 374.455 292.070,374.991 290.720,375.383 289.400 C 375.774 288.080,376.308 286.640,376.568 286.200 C 376.828 285.760,377.288 284.590,377.590 283.600 C 377.892 282.610,378.288 281.629,378.470 281.420 C 378.651 281.211,378.800 280.721,378.800 280.332 C 378.800 279.943,379.160 278.983,379.600 278.200 C 380.040 277.417,380.400 276.457,380.400 276.068 C 380.400 275.679,380.551 275.189,380.736 274.980 C 380.920 274.771,381.310 273.520,381.602 272.200 C 381.894 270.880,382.237 269.620,382.364 269.400 C 382.843 268.573,384.086 263.324,384.259 261.400 C 384.358 260.300,384.596 259.040,384.789 258.600 C 385.315 257.401,385.661 255.651,385.859 253.200 C 385.956 251.990,386.195 250.640,386.390 250.200 C 386.749 249.388,387.038 246.463,387.435 239.600 C 387.556 237.510,387.829 235.440,388.041 235.000 C 388.508 234.034,388.248 216.544,387.672 210.200 C 387.452 207.780,387.139 204.309,386.976 202.486 C 386.813 200.664,386.526 199.078,386.340 198.963 C 386.153 198.847,386.000 197.651,386.000 196.305 C 386.000 194.009,385.564 191.915,384.751 190.305 C 384.558 189.923,384.400 188.654,384.400 187.485 C 384.400 186.316,384.249 185.189,384.064 184.980 C 383.880 184.771,383.501 183.520,383.223 182.200 C 382.944 180.880,382.563 179.440,382.377 179.000 C 382.190 178.560,381.829 177.390,381.574 176.400 C 381.320 175.410,380.978 174.240,380.815 173.800 C 380.069 171.793,379.099 168.928,378.918 168.200 C 378.809 167.760,378.378 166.637,377.960 165.704 C 377.542 164.772,377.200 163.657,377.200 163.228 C 377.200 162.799,377.035 162.345,376.834 162.221 C 376.632 162.096,376.079 160.792,375.605 159.323 C 375.130 157.854,374.395 156.211,373.971 155.672 C 373.547 155.133,373.200 154.429,373.200 154.108 C 373.200 153.786,372.872 153.046,372.471 152.462 C 372.070 151.878,371.415 150.680,371.015 149.800 C 368.841 145.012,357.514 128.000,354.400 124.845 C 353.410 123.842,352.290 122.570,351.911 122.017 C 349.473 118.467,336.509 106.000,335.255 106.000 C 335.041 106.000,334.807 105.847,334.733 105.659 C 334.539 105.162,330.077 101.600,329.648 101.600 C 329.449 101.600,329.182 101.330,329.055 101.000 C 328.929 100.670,328.549 100.400,328.213 100.400 C 327.876 100.400,327.600 100.260,327.600 100.088 C 327.600 99.916,326.590 99.061,325.356 98.188 C 324.121 97.315,322.610 96.195,321.998 95.700 C 321.386 95.205,320.708 94.800,320.491 94.800 C 320.275 94.800,319.881 94.539,319.616 94.219 C 319.351 93.900,317.574 92.832,315.667 91.845 C 313.760 90.859,311.030 89.413,309.600 88.631 C 308.170 87.849,306.730 87.088,306.400 86.940 C 306.070 86.791,305.350 86.377,304.800 86.018 C 304.250 85.660,302.810 84.929,301.600 84.395 C 300.390 83.860,298.729 83.013,297.908 82.511 C 297.087 82.010,296.208 81.600,295.954 81.600 C 295.699 81.600,294.031 80.895,292.246 80.034 C 289.042 78.488,281.493 75.602,280.639 75.598 C 280.398 75.596,279.742 75.356,279.182 75.064 C 278.623 74.772,277.633 74.426,276.982 74.295 C 273.488 73.591,270.972 71.929,270.521 70.025 C 270.117 68.321,270.183 62.254,270.637 59.296 L 270.838 57.993 313.119 58.121 C 355.060 58.249,359.170 58.371,364.200 59.643 C 365.080 59.865,366.250 60.140,366.800 60.254 C 372.033 61.334,380.400 68.136,380.400 71.310 C 380.400 71.621,380.760 72.202,381.200 72.600 C 381.640 72.998,382.000 73.620,382.000 73.982 C 382.000 74.344,382.153 74.811,382.341 75.020 C 382.529 75.229,382.906 76.300,383.180 77.400 C 383.454 78.500,383.771 79.670,383.885 80.000 C 383.998 80.330,384.165 81.860,384.256 83.400 C 384.587 89.039,384.708 89.134,391.743 89.288 C 396.429 89.390,396.912 89.334,397.434 88.621 C 397.920 87.957,397.989 82.131,397.902 49.226 L 397.800 10.611 396.753 10.109 C 395.227 9.378,245.639 9.167,243.911 9.894 M154.753 12.543 C 155.239 13.128,154.722 24.930,154.024 29.200 C 153.826 30.410,153.547 33.641,153.403 36.380 C 153.260 39.119,152.885 43.432,152.571 45.965 C 152.257 48.497,152.000 51.934,152.000 53.601 C 152.000 55.268,151.738 58.605,151.417 61.016 C 151.096 63.427,150.635 68.280,150.391 71.800 C 150.147 75.320,149.734 80.090,149.474 82.399 L 149.000 86.599 147.600 87.268 C 146.089 87.989,141.324 89.982,136.200 92.036 C 134.440 92.741,132.716 93.562,132.369 93.859 C 132.021 94.157,131.571 94.406,131.369 94.414 C 129.333 94.492,111.200 108.396,108.576 111.891 C 107.952 112.721,106.421 114.570,105.173 116.000 C 103.116 118.358,102.050 119.781,97.530 126.215 C 95.628 128.921,93.436 133.072,91.728 137.200 C 90.954 139.070,89.781 141.743,89.121 143.139 C 88.462 144.536,87.773 146.156,87.591 146.739 C 87.409 147.323,86.866 148.790,86.384 150.000 C 85.902 151.210,85.303 152.920,85.051 153.800 C 84.800 154.680,84.485 155.580,84.352 155.800 C 83.862 156.606,81.820 163.610,80.387 169.400 C 78.804 175.800,77.491 183.081,76.133 193.000 C 75.296 199.116,74.894 231.694,75.577 238.079 C 76.653 248.136,77.810 256.158,78.740 260.000 C 78.980 260.990,79.459 262.970,79.804 264.400 C 80.150 265.830,80.596 267.810,80.795 268.800 C 81.120 270.411,84.527 280.984,86.201 285.575 C 86.556 286.551,87.917 289.660,89.224 292.484 C 90.531 295.308,91.600 297.764,91.600 297.942 C 91.600 298.634,95.417 305.574,97.650 308.940 C 98.943 310.889,100.000 312.565,100.000 312.666 C 100.000 312.766,100.585 313.643,101.300 314.615 C 102.015 315.586,103.860 318.116,105.400 320.236 C 110.355 327.057,122.830 340.030,127.382 343.094 C 128.272 343.693,129.720 344.747,130.600 345.437 C 132.710 347.090,136.334 349.600,136.612 349.600 C 136.733 349.600,137.320 349.940,137.916 350.355 C 141.840 353.089,150.021 357.597,151.068 357.601 C 151.251 357.602,152.840 358.158,154.600 358.837 C 159.837 360.856,166.882 363.200,167.715 363.200 C 168.143 363.200,169.327 363.467,170.346 363.793 C 181.832 367.466,207.112 368.325,221.800 365.540 C 228.256 364.317,229.641 364.006,230.356 363.624 C 230.791 363.391,231.578 363.200,232.105 363.200 C 233.340 363.200,245.262 359.118,250.400 356.936 C 252.672 355.971,257.013 353.703,258.476 352.716 C 259.223 352.212,261.142 350.990,262.740 350.000 C 266.217 347.847,273.169 342.836,275.400 340.876 C 283.626 333.647,291.478 325.011,296.928 317.200 C 297.903 315.803,303.690 307.143,304.189 306.335 C 305.229 304.653,307.726 299.711,308.396 298.009 C 308.805 296.972,309.948 294.428,310.936 292.357 C 312.935 288.163,315.488 281.746,316.011 279.600 C 316.199 278.830,316.899 276.580,317.568 274.600 C 319.027 270.283,319.668 267.896,320.793 262.600 C 321.260 260.400,321.899 257.506,322.212 256.169 C 322.525 254.832,322.891 252.402,323.024 250.769 C 323.157 249.136,323.440 247.260,323.653 246.600 C 325.492 240.888,325.484 199.205,323.641 190.200 C 323.416 189.100,323.057 186.850,322.843 185.200 C 322.276 180.823,320.659 172.740,319.441 168.200 C 318.861 166.035,318.262 163.743,317.456 160.600 C 317.174 159.500,316.754 158.240,316.523 157.800 C 316.291 157.360,315.429 154.930,314.606 152.400 C 313.783 149.870,312.860 147.401,312.555 146.914 C 312.250 146.427,311.998 145.797,311.997 145.514 C 311.995 145.231,311.290 143.539,310.431 141.754 C 309.571 139.968,308.593 137.696,308.256 136.704 C 307.182 133.542,301.678 124.223,298.773 120.651 C 298.572 120.403,297.649 119.210,296.723 118.000 C 293.879 114.285,289.924 109.886,287.811 108.088 C 281.516 102.732,274.447 97.421,271.200 95.611 C 268.833 94.291,264.294 92.102,262.400 91.367 C 261.410 90.983,259.279 90.068,257.664 89.334 C 256.050 88.600,254.388 88.000,253.971 88.000 C 253.554 88.000,252.639 87.488,251.939 86.862 L 250.665 85.724 250.376 79.762 C 250.217 76.483,249.972 73.170,249.832 72.400 C 249.692 71.630,249.319 67.670,249.004 63.600 C 247.779 47.796,247.570 45.271,247.169 41.400 C 246.941 39.200,246.588 34.700,246.384 31.400 C 246.180 28.100,245.724 23.150,245.372 20.400 C 245.020 17.650,244.792 14.680,244.866 13.800 L 245.000 12.200 319.958 12.099 C 375.029 12.025,395.059 12.117,395.458 12.448 C 395.907 12.821,396.000 19.175,396.000 49.435 C 396.000 91.525,396.591 86.804,391.326 86.794 C 387.304 86.786,387.480 86.973,386.441 81.600 C 385.952 79.070,385.390 76.640,385.194 76.200 C 384.997 75.760,384.360 74.230,383.778 72.800 C 383.196 71.370,382.468 69.916,382.160 69.569 C 381.852 69.221,381.600 68.712,381.600 68.436 C 381.600 65.838,372.395 59.308,367.129 58.171 C 365.518 57.823,363.660 57.378,363.000 57.183 C 355.830 55.065,269.491 53.961,268.414 55.974 C 268.166 56.437,268.000 60.121,268.000 65.145 C 268.000 74.293,268.062 74.557,270.328 75.016 C 271.707 75.296,273.437 75.797,275.200 76.429 C 275.970 76.705,277.590 77.284,278.800 77.716 C 284.314 79.684,291.291 82.458,293.000 83.361 C 293.660 83.710,294.321 83.996,294.469 83.998 C 294.757 84.000,302.949 87.745,304.072 88.387 C 304.442 88.599,306.872 89.887,309.472 91.250 C 312.072 92.612,314.920 94.194,315.800 94.764 C 316.680 95.334,317.586 95.890,317.813 96.000 C 318.649 96.404,325.060 100.897,327.000 102.437 C 328.100 103.311,330.710 105.315,332.800 106.890 C 338.541 111.218,348.110 120.721,354.257 128.200 C 357.122 131.686,365.157 143.788,367.668 148.400 C 372.232 156.781,373.914 160.609,376.807 169.200 C 377.289 170.630,377.828 172.160,378.006 172.600 C 378.326 173.394,379.185 176.097,380.774 181.308 C 381.228 182.798,381.600 184.319,381.600 184.689 C 381.600 185.059,381.967 186.990,382.416 188.981 C 382.865 190.971,383.408 193.377,383.622 194.328 C 383.836 195.278,384.189 197.798,384.406 199.928 C 384.623 202.057,385.020 204.790,385.288 206.000 C 385.949 208.980,385.955 240.698,385.296 243.000 C 385.043 243.880,384.652 246.429,384.427 248.664 C 384.010 252.792,383.867 253.565,382.410 259.600 C 381.959 261.470,381.592 263.311,381.595 263.692 C 381.598 264.072,381.253 265.512,380.830 266.892 C 380.406 268.271,379.658 270.750,379.167 272.400 C 378.676 274.050,378.172 275.580,378.046 275.800 C 377.740 276.337,376.445 279.905,376.014 281.400 C 375.136 284.445,373.134 289.316,371.412 292.600 C 366.359 302.237,364.530 305.366,361.831 309.000 C 360.687 310.540,359.159 312.778,358.434 313.973 C 354.140 321.059,340.884 335.108,331.200 342.836 C 328.450 345.031,325.210 347.638,324.000 348.629 C 321.232 350.897,312.387 356.818,310.000 358.001 C 309.010 358.492,307.930 359.119,307.600 359.395 C 307.270 359.670,305.200 360.842,303.000 361.998 C 300.800 363.154,298.370 364.434,297.600 364.843 C 296.830 365.252,295.750 365.769,295.200 365.992 C 294.650 366.215,293.930 366.570,293.600 366.780 C 292.817 367.279,286.892 370.000,286.589 370.000 C 286.461 370.000,285.601 370.328,284.678 370.729 C 281.233 372.226,276.120 374.105,273.800 374.725 C 272.920 374.961,270.850 375.541,269.200 376.014 C 264.232 377.440,258.426 379.027,254.800 379.950 C 253.810 380.202,251.442 380.674,249.538 381.000 C 247.633 381.325,245.597 381.773,245.012 381.996 C 244.427 382.218,243.283 382.400,242.471 382.400 C 241.659 382.400,240.366 382.581,239.597 382.802 C 238.829 383.023,235.770 383.473,232.800 383.803 C 229.830 384.133,225.870 384.610,224.000 384.863 C 219.241 385.506,181.476 385.514,176.400 384.873 C 174.310 384.609,170.440 384.143,167.800 383.836 C 161.666 383.125,157.669 382.503,154.400 381.753 C 152.970 381.425,150.810 380.995,149.600 380.798 C 146.922 380.363,138.464 378.300,135.179 377.281 C 133.132 376.646,128.451 375.307,126.400 374.769 C 124.148 374.179,120.536 372.877,119.138 372.151 C 118.554 371.848,117.862 371.600,117.599 371.600 C 117.336 371.600,116.554 371.341,115.860 371.025 C 115.167 370.709,113.520 369.996,112.200 369.442 C 108.503 367.889,96.761 361.872,93.030 359.618 C 91.192 358.508,89.569 357.600,89.423 357.600 C 88.707 357.600,76.608 349.351,75.073 347.816 C 74.022 346.765,69.489 343.140,67.048 341.400 C 62.126 337.890,43.970 318.228,41.860 314.124 C 41.499 313.422,40.312 311.669,39.222 310.229 C 38.132 308.788,36.773 306.843,36.203 305.905 C 35.632 304.967,34.997 303.930,34.790 303.600 C 30.757 297.150,25.962 287.137,24.063 281.200 C 23.606 279.770,22.764 277.340,22.191 275.800 C 21.619 274.260,20.998 272.460,20.812 271.800 C 18.683 264.241,17.405 258.892,16.799 255.000 C 16.594 253.680,16.158 251.070,15.831 249.200 C 14.275 240.296,13.580 223.003,14.409 213.800 C 14.687 210.720,15.049 206.490,15.214 204.400 C 15.565 199.950,16.617 193.420,17.429 190.654 C 17.743 189.584,18.000 188.359,18.000 187.933 C 18.000 187.290,19.307 182.023,20.813 176.600 C 21.197 175.216,22.323 171.947,23.017 170.200 C 23.279 169.540,23.815 168.010,24.209 166.800 C 25.707 162.193,26.498 160.129,27.581 158.000 C 28.196 156.790,29.420 154.360,30.301 152.600 C 31.181 150.840,32.464 148.447,33.151 147.282 C 33.838 146.118,34.400 145.089,34.400 144.997 C 34.400 144.904,34.943 144.057,35.607 143.114 C 38.541 138.946,41.470 134.551,41.681 134.000 C 42.225 132.577,47.344 126.505,53.804 119.618 C 61.373 111.550,61.904 111.064,69.000 105.704 C 71.640 103.709,74.160 101.745,74.600 101.339 C 75.418 100.583,78.276 98.521,79.512 97.796 C 79.890 97.573,81.199 96.744,82.420 95.952 C 85.388 94.027,87.501 92.829,91.800 90.633 C 93.780 89.621,95.670 88.625,96.000 88.419 C 96.565 88.067,100.376 86.286,104.400 84.493 C 105.390 84.052,107.602 83.041,109.315 82.246 C 111.029 81.451,112.658 80.800,112.935 80.800 C 113.213 80.800,113.611 80.637,113.820 80.437 C 114.029 80.238,114.830 79.891,115.600 79.666 C 116.370 79.441,118.260 78.783,119.800 78.204 C 121.340 77.625,123.140 77.002,123.800 76.819 C 124.460 76.637,125.669 76.199,126.487 75.844 C 127.305 75.490,128.390 75.200,128.898 75.200 C 131.504 75.200,131.600 74.838,131.600 65.057 C 131.600 58.671,131.465 56.025,131.120 55.680 C 130.753 55.313,121.349 55.201,91.220 55.202 C 49.954 55.205,44.794 55.396,37.000 57.212 C 30.883 58.637,29.631 59.002,27.889 59.871 C 20.684 63.466,14.479 73.333,13.719 82.402 C 13.381 86.430,12.957 86.800,8.680 86.800 C 6.631 86.800,5.176 86.616,4.880 86.320 C 4.371 85.811,4.140 13.943,4.643 12.633 C 4.985 11.741,154.014 11.652,154.753 12.543 " stroke="none" fill="#66645d" fill-rule="evenodd"></path><path id="path2" d="M154.270 12.405 C 154.529 12.738,154.814 13.728,154.903 14.605 L 155.066 16.200 155.133 14.549 C 155.180 13.393,154.990 12.733,154.500 12.349 C 153.889 11.870,153.860 11.877,154.270 12.405 M394.929 12.500 C 395.563 12.966,395.603 15.516,395.505 49.662 C 395.447 69.826,395.535 86.240,395.700 86.138 C 395.865 86.036,396.000 69.529,396.000 49.456 C 396.000 12.560,395.980 12.000,394.644 12.000 C 394.425 12.000,394.554 12.225,394.929 12.500 M244.893 16.400 C 244.893 17.170,244.975 17.485,245.076 17.100 C 245.176 16.715,245.176 16.085,245.076 15.700 C 244.975 15.315,244.893 15.630,244.893 16.400 M154.520 21.600 C 154.520 22.810,154.595 23.305,154.687 22.700 C 154.778 22.095,154.778 21.105,154.687 20.500 C 154.595 19.895,154.520 20.390,154.520 21.600 M246.114 27.000 C 246.117 28.100,246.195 28.503,246.287 27.895 C 246.379 27.286,246.377 26.386,246.282 25.895 C 246.187 25.403,246.111 25.900,246.114 27.000 M153.324 35.000 C 153.326 36.320,153.401 36.812,153.490 36.093 C 153.579 35.374,153.577 34.294,153.486 33.693 C 153.395 33.092,153.322 33.680,153.324 35.000 M247.293 41.200 C 247.293 41.970,247.375 42.285,247.476 41.900 C 247.576 41.515,247.576 40.885,247.476 40.500 C 247.375 40.115,247.293 40.430,247.293 41.200 M247.720 47.600 C 247.720 48.810,247.795 49.305,247.887 48.700 C 247.978 48.095,247.978 47.105,247.887 46.500 C 247.795 45.895,247.720 46.390,247.720 47.600 M152.093 48.000 C 152.093 48.770,152.175 49.085,152.276 48.700 C 152.376 48.315,152.376 47.685,152.276 47.300 C 152.175 46.915,152.093 47.230,152.093 48.000 M248.493 56.000 C 248.493 56.770,248.575 57.085,248.676 56.700 C 248.776 56.315,248.776 55.685,248.676 55.300 C 248.575 54.915,248.493 55.230,248.493 56.000 M48.305 55.483 C 48.802 55.579,49.522 55.575,49.905 55.475 C 50.287 55.375,49.880 55.296,49.000 55.301 C 48.120 55.305,47.807 55.387,48.305 55.483 M131.100 55.599 C 131.468 56.012,131.600 58.494,131.600 65.000 C 131.600 71.506,131.468 73.988,131.100 74.401 C 130.675 74.878,130.704 74.882,131.300 74.432 C 131.930 73.955,132.000 73.010,132.000 65.000 C 132.000 56.990,131.930 56.045,131.300 55.568 C 130.704 55.118,130.675 55.122,131.100 55.599 M350.305 55.483 C 350.802 55.579,351.522 55.575,351.905 55.475 C 352.287 55.375,351.880 55.296,351.000 55.301 C 350.120 55.305,349.807 55.387,350.305 55.483 M248.924 61.000 C 248.926 62.320,249.001 62.812,249.090 62.093 C 249.179 61.374,249.177 60.294,249.086 59.693 C 248.995 59.092,248.922 59.680,248.924 61.000 M150.893 62.800 C 150.893 63.570,150.975 63.885,151.076 63.500 C 151.176 63.115,151.176 62.485,151.076 62.100 C 150.975 61.715,150.893 62.030,150.893 62.800 M378.200 64.400 C 379.283 65.500,380.260 66.400,380.370 66.400 C 380.480 66.400,379.683 65.500,378.600 64.400 C 377.517 63.300,376.540 62.400,376.430 62.400 C 376.320 62.400,377.117 63.300,378.200 64.400 M150.520 67.600 C 150.520 68.810,150.595 69.305,150.687 68.700 C 150.778 68.095,150.778 67.105,150.687 66.500 C 150.595 65.895,150.520 66.390,150.520 67.600 M250.093 74.400 C 250.093 75.170,250.175 75.485,250.276 75.100 C 250.376 74.715,250.376 74.085,250.276 73.700 C 250.175 73.315,250.093 73.630,250.093 74.400 M122.000 77.400 C 121.450 77.714,121.180 77.972,121.400 77.972 C 121.620 77.972,122.250 77.714,122.800 77.400 C 123.350 77.086,123.620 76.828,123.400 76.828 C 123.180 76.828,122.550 77.086,122.000 77.400 M277.200 77.400 C 277.750 77.714,278.380 77.972,278.600 77.972 C 278.820 77.972,278.550 77.714,278.000 77.400 C 277.450 77.086,276.820 76.828,276.600 76.828 C 276.380 76.828,276.650 77.086,277.200 77.400 M149.293 81.200 C 149.293 81.970,149.375 82.285,149.476 81.900 C 149.576 81.515,149.576 80.885,149.476 80.500 C 149.375 80.115,149.293 80.430,149.293 81.200 M250.493 83.200 C 250.493 83.970,250.575 84.285,250.676 83.900 C 250.776 83.515,250.776 82.885,250.676 82.500 C 250.575 82.115,250.493 82.430,250.493 83.200 M6.912 86.695 C 7.964 86.777,9.584 86.776,10.512 86.692 C 11.440 86.608,10.580 86.541,8.600 86.542 C 6.620 86.543,5.860 86.612,6.912 86.695 M252.344 87.176 C 252.864 87.629,253.479 88.000,253.711 88.000 C 254.203 88.000,254.179 87.980,252.600 87.055 L 251.400 86.353 252.344 87.176 M389.712 86.695 C 390.764 86.777,392.384 86.776,393.312 86.692 C 394.240 86.608,393.380 86.541,391.400 86.542 C 389.420 86.543,388.660 86.612,389.712 86.695 M285.200 105.725 C 285.200 105.794,285.785 106.379,286.500 107.025 L 287.800 108.200 286.625 106.900 C 285.530 105.688,285.200 105.416,285.200 105.725 M109.775 110.100 L 108.600 111.400 109.900 110.225 C 110.615 109.579,111.200 108.994,111.200 108.925 C 111.200 108.616,110.870 108.888,109.775 110.100 M336.400 109.725 C 336.400 109.794,336.985 110.379,337.700 111.025 L 339.000 112.200 337.825 110.900 C 336.730 109.688,336.400 109.416,336.400 109.725 M59.586 113.500 L 57.400 115.800 59.700 113.614 C 60.965 112.411,62.000 111.376,62.000 111.314 C 62.000 111.017,61.618 111.363,59.586 113.500 M344.200 117.600 C 345.728 119.140,347.069 120.400,347.179 120.400 C 347.289 120.400,346.128 119.140,344.600 117.600 C 343.072 116.060,341.731 114.800,341.621 114.800 C 341.511 114.800,342.672 116.060,344.200 117.600 M52.786 120.700 L 50.600 123.000 52.900 120.814 C 54.165 119.611,55.200 118.576,55.200 118.514 C 55.200 118.217,54.818 118.563,52.786 120.700 M350.400 124.200 C 351.595 125.410,352.663 126.400,352.773 126.400 C 352.883 126.400,351.995 125.410,350.800 124.200 C 349.605 122.990,348.537 122.000,348.427 122.000 C 348.317 122.000,349.205 122.990,350.400 124.200 M31.094 150.903 L 30.388 152.200 31.194 151.256 C 31.880 150.452,32.246 149.594,31.900 149.603 C 31.845 149.604,31.482 150.189,31.094 150.903 M76.493 188.800 C 76.493 189.570,76.575 189.885,76.676 189.500 C 76.776 189.115,76.776 188.485,76.676 188.100 C 76.575 187.715,76.493 188.030,76.493 188.800 M324.524 199.000 C 324.526 200.320,324.601 200.812,324.690 200.093 C 324.779 199.374,324.777 198.294,324.686 197.693 C 324.595 197.092,324.522 197.680,324.524 199.000 M384.093 198.800 C 384.093 199.570,384.175 199.885,384.276 199.500 C 384.376 199.115,384.376 198.485,384.276 198.100 C 384.175 197.715,384.093 198.030,384.093 198.800 M75.301 199.400 C 75.305 200.280,75.387 200.593,75.483 200.095 C 75.579 199.598,75.575 198.878,75.475 198.495 C 75.375 198.113,75.296 198.520,75.301 199.400 M324.901 206.600 C 324.905 207.480,324.987 207.793,325.083 207.295 C 325.179 206.798,325.175 206.078,325.075 205.695 C 324.975 205.313,324.896 205.720,324.901 206.600 M14.493 212.000 C 14.493 212.770,14.575 213.085,14.676 212.700 C 14.776 212.315,14.776 211.685,14.676 211.300 C 14.575 210.915,14.493 211.230,14.493 212.000 M325.365 218.800 C 325.365 222.650,325.425 224.225,325.498 222.300 C 325.571 220.375,325.571 217.225,325.498 215.300 C 325.425 213.375,325.365 214.950,325.365 218.800 M385.774 224.400 C 385.774 230.010,385.830 232.305,385.899 229.500 C 385.968 226.695,385.968 222.105,385.899 219.300 C 385.830 216.495,385.774 218.790,385.774 224.400 M14.131 218.600 C 14.133 220.140,14.205 220.721,14.292 219.891 C 14.379 219.061,14.377 217.801,14.289 217.091 C 14.200 216.381,14.129 217.060,14.131 218.600 M74.944 219.600 C 74.944 221.690,75.012 222.545,75.094 221.500 C 75.176 220.455,75.176 218.745,75.094 217.700 C 75.012 216.655,74.944 217.510,74.944 219.600 M14.134 230.400 C 14.134 232.050,14.205 232.725,14.291 231.900 C 14.378 231.075,14.378 229.725,14.291 228.900 C 14.205 228.075,14.134 228.750,14.134 230.400 M324.914 231.000 C 324.917 232.100,324.995 232.503,325.087 231.895 C 325.179 231.286,325.177 230.386,325.082 229.895 C 324.987 229.403,324.911 229.900,324.914 231.000 M75.309 238.000 C 75.309 238.990,75.387 239.395,75.482 238.900 C 75.578 238.405,75.578 237.595,75.482 237.100 C 75.387 236.605,75.309 237.010,75.309 238.000 M324.524 238.600 C 324.526 239.920,324.601 240.412,324.690 239.693 C 324.779 238.974,324.777 237.894,324.686 237.293 C 324.595 236.692,324.522 237.280,324.524 238.600 M14.893 240.400 C 14.893 241.170,14.975 241.485,15.076 241.100 C 15.176 240.715,15.176 240.085,15.076 239.700 C 14.975 239.315,14.893 239.630,14.893 240.400 M323.429 247.029 C 323.281 247.615,323.238 248.172,323.332 248.266 C 323.427 248.360,323.624 247.958,323.771 247.371 C 323.919 246.785,323.962 246.228,323.868 246.134 C 323.773 246.040,323.576 246.442,323.429 247.029 M76.493 248.400 C 76.493 249.170,76.575 249.485,76.676 249.100 C 76.776 248.715,76.776 248.085,76.676 247.700 C 76.575 247.315,76.493 247.630,76.493 248.400 M384.093 250.000 C 384.093 250.770,384.175 251.085,384.276 250.700 C 384.376 250.315,384.376 249.685,384.276 249.300 C 384.175 248.915,384.093 249.230,384.093 250.000 M383.429 253.429 C 383.281 254.015,383.238 254.572,383.332 254.666 C 383.427 254.760,383.624 254.358,383.771 253.771 C 383.919 253.185,383.962 252.628,383.868 252.534 C 383.773 252.440,383.576 252.842,383.429 253.429 M316.465 277.817 C 316.209 278.378,316.007 279.054,316.016 279.319 C 316.024 279.583,316.297 279.188,316.622 278.439 C 317.305 276.865,317.161 276.290,316.465 277.817 M37.164 307.533 C 37.380 307.936,37.871 308.521,38.255 308.833 C 38.687 309.184,38.590 308.904,38.001 308.100 C 36.951 306.665,36.557 306.398,37.164 307.533 M51.800 326.400 C 52.659 327.280,53.452 328.000,53.562 328.000 C 53.672 328.000,53.059 327.280,52.200 326.400 C 51.341 325.520,50.548 324.800,50.438 324.800 C 50.328 324.800,50.941 325.520,51.800 326.400 M344.587 330.100 L 342.200 332.600 344.700 330.213 C 346.075 328.899,347.200 327.774,347.200 327.713 C 347.200 327.417,346.805 327.778,344.587 330.100 M286.000 330.600 C 285.028 331.590,284.323 332.400,284.433 332.400 C 284.543 332.400,285.428 331.590,286.400 330.600 C 287.372 329.610,288.077 328.800,287.967 328.800 C 287.857 328.800,286.972 329.610,286.000 330.600 M117.200 334.200 C 119.943 336.950,122.278 339.200,122.388 339.200 C 122.498 339.200,120.343 336.950,117.600 334.200 C 114.857 331.450,112.522 329.200,112.412 329.200 C 112.302 329.200,114.457 331.450,117.200 334.200 M339.781 335.300 L 338.200 337.000 339.900 335.419 C 341.481 333.948,341.784 333.600,341.481 333.600 C 341.416 333.600,340.651 334.365,339.781 335.300 M279.200 337.400 C 278.228 338.390,277.523 339.200,277.633 339.200 C 277.743 339.200,278.628 338.390,279.600 337.400 C 280.572 336.410,281.277 335.600,281.167 335.600 C 281.057 335.600,280.172 336.410,279.200 337.400 M122.800 339.325 C 122.800 339.394,123.385 339.979,124.100 340.625 L 125.400 341.800 124.225 340.500 C 123.130 339.288,122.800 339.016,122.800 339.325 M139.375 351.559 C 139.497 351.757,140.239 352.298,141.023 352.760 C 141.807 353.223,142.348 353.439,142.225 353.241 C 142.103 353.043,141.361 352.502,140.577 352.040 C 139.793 351.577,139.252 351.361,139.375 351.559 M304.744 360.824 L 303.800 361.647 305.000 360.945 C 306.579 360.020,306.603 360.000,306.111 360.000 C 305.879 360.000,305.264 360.371,304.744 360.824 M195.921 367.499 C 198.188 367.570,201.788 367.570,203.921 367.498 C 206.055 367.426,204.200 367.368,199.800 367.368 C 195.400 367.368,193.655 367.427,195.921 367.499 M168.100 383.876 C 168.485 383.976,169.115 383.976,169.500 383.876 C 169.885 383.775,169.570 383.693,168.800 383.693 C 168.030 383.693,167.715 383.775,168.100 383.876 M230.705 383.883 C 231.202 383.979,231.922 383.975,232.305 383.875 C 232.687 383.775,232.280 383.696,231.400 383.701 C 230.520 383.705,230.207 383.787,230.705 383.883 M179.100 385.089 C 179.815 385.178,180.985 385.178,181.700 385.089 C 182.415 385.001,181.830 384.928,180.400 384.928 C 178.970 384.928,178.385 385.001,179.100 385.089 M218.291 385.089 C 219.001 385.177,220.261 385.179,221.091 385.092 C 221.921 385.005,221.340 384.933,219.800 384.931 C 218.260 384.929,217.581 385.000,218.291 385.089 M189.111 385.493 C 190.051 385.578,191.491 385.577,192.311 385.491 C 193.130 385.405,192.360 385.336,190.600 385.337 C 188.840 385.339,188.170 385.409,189.111 385.493 M207.100 385.493 C 208.035 385.577,209.565 385.577,210.500 385.493 C 211.435 385.409,210.670 385.340,208.800 385.340 C 206.930 385.340,206.165 385.409,207.100 385.493 " stroke="none" fill="#44443d" fill-rule="evenodd"></path><path id="path3" d="M4.800 12.699 C 4.800 12.865,38.415 13.000,79.500 13.000 L 154.200 13.000 154.449 15.000 L 154.699 17.000 154.649 14.800 L 154.600 12.600 79.700 12.499 C 38.505 12.443,4.800 12.533,4.800 12.699 M245.467 12.667 C 245.051 13.083,245.191 16.241,245.810 20.400 C 246.422 24.506,246.399 22.802,245.746 15.600 L 245.493 12.800 320.103 12.800 L 394.713 12.800 394.947 13.731 C 395.244 14.916,395.234 84.646,394.936 85.422 C 394.768 85.862,393.921 86.000,391.400 86.000 C 387.780 86.000,387.628 85.900,387.570 83.467 C 387.553 82.770,387.281 81.570,386.967 80.800 C 386.424 79.473,386.405 79.463,386.610 80.600 C 386.728 81.260,386.933 82.610,387.065 83.600 C 387.197 84.590,387.483 85.625,387.701 85.900 C 388.231 86.567,394.456 86.584,395.120 85.920 C 395.816 85.224,395.816 13.576,395.120 12.880 C 394.596 12.356,245.989 12.144,245.467 12.667 M153.656 25.068 C 153.369 26.351,153.073 30.100,153.000 33.400 L 152.865 39.400 153.177 34.400 C 153.348 31.650,153.718 28.122,153.998 26.560 C 154.629 23.036,154.368 21.892,153.656 25.068 M246.464 28.284 C 246.429 30.530,246.667 34.130,246.993 36.284 C 247.320 38.438,247.651 40.830,247.729 41.600 C 247.808 42.370,247.893 41.830,247.919 40.400 C 247.944 38.970,247.783 36.990,247.561 36.000 C 247.339 35.010,247.015 31.950,246.843 29.200 L 246.529 24.200 246.464 28.284 M152.252 41.883 C 152.017 42.944,150.863 56.680,150.580 61.800 C 150.472 63.748,150.549 63.522,150.989 60.600 C 151.287 58.620,151.646 54.750,151.787 52.000 C 151.927 49.250,152.227 45.680,152.454 44.066 C 152.861 41.159,152.729 39.732,152.252 41.883 M248.041 49.627 C 248.018 50.191,248.195 51.706,248.433 52.993 C 248.670 54.280,249.018 57.508,249.205 60.167 L 249.545 65.000 249.378 59.200 C 249.236 54.257,248.163 46.574,248.041 49.627 M47.600 54.831 C 45.950 55.006,44.060 55.341,43.400 55.574 C 42.313 55.958,42.370 55.978,44.000 55.781 C 50.424 55.007,58.696 54.844,92.526 54.823 C 117.948 54.808,130.708 54.937,131.226 55.214 C 131.957 55.605,132.000 56.143,132.000 64.968 L 132.000 74.309 130.640 74.954 C 129.891 75.309,128.995 75.600,128.648 75.600 C 128.300 75.600,127.338 75.850,126.508 76.155 C 125.679 76.460,124.134 77.020,123.076 77.398 C 122.017 77.775,121.239 78.172,121.346 78.279 C 121.453 78.387,123.039 77.932,124.870 77.270 C 126.702 76.608,128.830 75.941,129.600 75.789 C 132.429 75.228,132.400 75.340,132.400 64.961 C 132.400 55.788,132.386 55.636,131.511 55.023 C 130.528 54.334,53.919 54.159,47.600 54.831 M268.249 55.009 C 267.688 55.570,267.600 56.915,267.600 64.967 C 267.600 75.351,267.594 75.329,270.426 75.837 C 271.182 75.972,273.253 76.605,275.029 77.242 C 276.805 77.879,278.425 78.397,278.629 78.394 C 279.496 78.380,277.563 77.543,274.400 76.564 C 272.530 75.985,270.370 75.299,269.600 75.039 L 268.200 74.567 268.092 65.184 C 267.995 56.716,268.052 55.752,268.669 55.300 C 269.205 54.908,277.634 54.804,307.776 54.820 C 342.127 54.839,350.669 55.007,356.200 55.775 C 357.759 55.992,357.749 55.980,355.800 55.325 C 352.768 54.306,269.253 54.004,268.249 55.009 M36.800 56.478 C 36.250 56.714,35.170 57.042,34.400 57.207 L 33.000 57.508 34.326 57.554 C 35.056 57.579,36.033 57.396,36.498 57.148 C 36.963 56.899,38.256 56.561,39.372 56.397 L 41.400 56.100 39.600 56.075 C 38.610 56.062,37.350 56.243,36.800 56.478 M361.128 56.447 C 362.298 56.642,363.591 56.981,364.001 57.201 C 364.412 57.420,365.254 57.579,365.874 57.554 C 366.679 57.520,366.772 57.457,366.200 57.330 C 365.760 57.232,364.721 56.893,363.892 56.576 C 363.062 56.259,361.622 56.021,360.692 56.047 L 359.000 56.094 361.128 56.447 M30.800 58.000 C 30.267 58.345,30.267 58.388,30.800 58.388 C 31.130 58.388,31.670 58.213,32.000 58.000 C 32.533 57.655,32.533 57.612,32.000 57.612 C 31.670 57.612,31.130 57.787,30.800 58.000 M26.196 59.967 C 21.455 63.064,16.000 69.564,16.000 72.115 C 16.000 72.375,16.379 71.871,16.842 70.994 C 19.589 65.791,23.633 61.575,27.800 59.567 C 29.125 58.928,29.840 58.408,29.397 58.405 C 28.955 58.402,27.514 59.105,26.196 59.967 M371.704 59.200 C 373.622 60.228,374.152 60.228,372.600 59.200 C 371.940 58.763,371.133 58.404,370.806 58.403 C 370.479 58.401,370.884 58.760,371.704 59.200 M375.000 61.013 C 378.677 64.285,380.142 65.825,381.458 67.809 C 382.263 69.021,383.002 69.932,383.100 69.833 C 383.800 69.133,376.031 60.533,374.283 60.073 C 374.017 60.003,374.340 60.426,375.000 61.013 M150.085 68.400 C 150.038 70.710,149.733 73.860,149.407 75.400 C 149.081 76.940,148.836 79.460,148.863 81.000 L 148.912 83.800 149.212 80.652 C 149.376 78.920,149.722 76.490,149.979 75.252 C 150.237 74.013,150.385 71.020,150.309 68.600 L 150.170 64.200 150.085 68.400 M249.782 68.400 C 249.873 69.390,250.136 72.900,250.366 76.200 C 251.091 86.588,251.142 86.750,253.948 87.619 C 255.717 88.167,257.838 89.046,259.262 89.822 C 259.846 90.140,260.566 90.399,260.862 90.398 C 261.619 90.394,259.528 89.329,256.000 87.921 C 251.362 86.070,251.592 86.563,250.961 77.142 C 250.661 72.664,250.236 68.460,250.016 67.800 C 249.653 66.712,249.631 66.768,249.782 68.400 M383.219 70.600 C 383.244 71.295,384.766 73.829,384.781 73.200 C 384.788 72.870,384.437 72.060,384.000 71.400 C 383.563 70.740,383.212 70.380,383.219 70.600 M15.462 73.100 C 14.896 74.016,13.554 78.063,13.686 78.459 C 13.768 78.704,14.180 77.846,14.601 76.552 C 15.023 75.258,15.536 73.971,15.741 73.690 C 15.946 73.410,16.016 73.083,15.897 72.964 C 15.778 72.844,15.582 72.906,15.462 73.100 M384.800 74.431 C 384.800 74.766,384.974 75.214,385.187 75.427 C 385.400 75.640,385.757 76.531,385.980 77.407 L 386.386 79.000 386.235 77.327 C 386.089 75.711,384.800 73.110,384.800 74.431 M117.800 79.222 C 116.920 79.638,116.495 79.984,116.856 79.990 C 117.217 79.995,118.297 79.644,119.256 79.209 C 120.237 78.764,120.650 78.428,120.200 78.441 C 119.760 78.454,118.680 78.805,117.800 79.222 M280.744 79.209 C 281.703 79.644,282.783 79.996,283.144 79.991 C 283.505 79.986,283.015 79.626,282.056 79.191 C 281.097 78.756,280.017 78.404,279.656 78.409 C 279.295 78.414,279.785 78.774,280.744 79.209 M13.266 80.600 C 13.223 81.480,12.945 83.010,12.649 84.000 L 12.109 85.800 8.454 85.800 C 6.444 85.800,4.799 85.942,4.799 86.114 C 4.800 86.287,6.547 86.377,8.683 86.314 L 12.567 86.200 13.094 84.400 C 13.384 83.410,13.559 81.790,13.483 80.800 L 13.344 79.000 13.266 80.600 M114.580 80.320 C 114.371 80.496,113.120 81.061,111.800 81.575 C 108.310 82.934,102.910 85.550,103.538 85.577 C 103.834 85.590,104.554 85.337,105.138 85.016 C 107.101 83.937,112.189 81.723,113.367 81.436 C 114.813 81.083,116.474 80.000,115.569 80.000 C 115.234 80.000,114.789 80.144,114.580 80.320 M285.200 80.800 C 285.970 81.222,286.821 81.574,287.091 81.583 C 287.563 81.599,292.414 83.738,295.084 85.107 C 295.791 85.469,296.458 85.675,296.568 85.565 C 296.678 85.455,296.191 85.090,295.484 84.754 C 292.747 83.453,290.528 82.479,288.800 81.822 C 287.810 81.445,286.490 80.881,285.868 80.568 C 284.168 79.715,283.587 79.917,285.200 80.800 M98.200 87.660 C 96.000 88.749,93.930 89.815,93.600 90.030 C 93.270 90.245,92.010 90.898,90.800 91.483 C 87.295 93.175,76.068 100.197,75.200 101.240 C 74.749 101.783,65.512 108.800,65.250 108.800 C 63.319 108.800,45.340 128.906,40.324 136.675 C 39.073 138.614,37.332 141.216,36.456 142.458 C 35.580 143.701,34.570 145.321,34.212 146.058 C 32.843 148.877,34.724 146.184,40.916 136.464 C 44.044 131.553,46.619 128.263,50.663 124.011 C 52.238 122.355,54.369 120.100,55.400 119.000 C 61.940 112.019,65.354 109.006,72.322 104.069 C 73.355 103.337,74.650 102.326,75.200 101.822 C 75.750 101.318,77.640 99.959,79.400 98.801 C 81.160 97.643,83.088 96.359,83.684 95.948 C 84.280 95.536,84.942 95.200,85.155 95.200 C 85.368 95.200,85.781 94.968,86.071 94.684 C 86.612 94.157,87.814 93.512,97.179 88.725 C 100.137 87.213,102.642 85.891,102.745 85.788 C 103.257 85.277,101.834 85.863,98.200 87.660 M148.115 86.208 C 147.848 86.498,146.642 87.022,145.435 87.373 C 144.228 87.723,143.112 88.219,142.955 88.473 C 142.755 88.796,142.900 88.842,143.434 88.626 C 143.855 88.455,145.010 88.041,146.000 87.707 C 147.752 87.114,149.132 86.191,148.776 85.850 C 148.679 85.757,148.382 85.918,148.115 86.208 M297.266 85.800 C 297.512 86.046,307.696 91.200,307.936 91.200 C 308.343 91.200,306.051 89.728,304.400 88.930 C 303.410 88.451,301.457 87.506,300.059 86.830 C 297.639 85.659,296.825 85.359,297.266 85.800 M140.200 89.600 C 138.633 90.638,139.588 90.639,141.290 89.601 C 142.011 89.162,142.330 88.804,142.000 88.804 C 141.670 88.805,140.860 89.163,140.200 89.600 M134.974 91.724 C 131.457 93.312,125.919 96.511,123.800 98.178 C 122.920 98.871,121.405 99.969,120.433 100.619 C 119.461 101.268,117.211 103.054,115.433 104.586 C 113.655 106.118,111.953 107.558,111.651 107.786 C 110.099 108.956,106.596 112.857,103.753 116.580 C 101.335 119.747,102.563 118.554,106.234 114.171 C 110.032 109.636,117.235 103.273,123.185 99.200 C 123.666 98.870,124.915 97.963,125.959 97.184 C 127.541 96.004,134.138 92.553,138.000 90.886 C 138.550 90.648,138.730 90.453,138.400 90.451 C 138.070 90.449,136.529 91.022,134.974 91.724 M262.800 91.100 C 263.570 91.457,264.830 92.016,265.600 92.342 C 267.909 93.321,275.200 97.646,275.200 98.037 C 275.200 98.237,275.387 98.400,275.616 98.400 C 277.215 98.400,289.420 108.621,292.811 112.800 C 293.793 114.010,294.791 115.180,295.028 115.400 C 295.670 115.995,299.253 120.737,300.614 122.792 C 301.266 123.778,302.070 124.908,302.400 125.303 C 303.094 126.134,304.576 128.549,305.282 130.000 C 305.826 131.120,307.200 133.035,307.200 132.675 C 307.200 132.245,305.375 129.020,303.781 126.634 C 302.911 125.332,302.019 123.982,301.797 123.634 C 299.576 120.144,290.252 108.814,289.020 108.108 C 288.724 107.939,287.519 106.963,286.341 105.940 C 285.163 104.916,283.814 103.746,283.343 103.340 C 282.872 102.933,281.109 101.610,279.426 100.400 C 277.744 99.190,275.578 97.617,274.614 96.905 C 273.650 96.193,272.011 95.158,270.972 94.606 C 269.934 94.054,268.885 93.447,268.642 93.257 C 268.133 92.860,262.027 90.387,261.651 90.426 C 261.513 90.440,262.030 90.743,262.800 91.100 M308.400 91.420 C 308.400 91.542,308.985 91.909,309.700 92.237 C 310.415 92.564,311.720 93.267,312.600 93.797 C 313.480 94.328,314.470 94.893,314.800 95.054 C 315.130 95.215,315.850 95.651,316.400 96.024 C 319.565 98.171,321.317 99.216,321.480 99.054 C 321.738 98.795,315.067 94.506,311.200 92.444 C 308.734 91.130,308.400 91.008,308.400 91.420 M322.000 99.355 C 322.000 99.590,332.377 107.715,333.912 108.683 C 336.349 110.220,339.760 113.604,351.200 125.838 C 353.657 128.465,357.253 133.287,359.400 136.832 C 359.620 137.196,360.700 138.785,361.800 140.365 C 362.900 141.945,364.160 143.841,364.600 144.579 C 366.716 148.129,367.600 149.726,367.600 150.001 C 367.600 150.167,367.899 150.549,368.264 150.851 C 369.437 151.822,365.978 145.742,362.659 141.000 C 362.351 140.560,360.883 138.310,359.397 136.000 C 356.303 131.191,353.356 127.317,351.019 124.985 C 350.128 124.097,347.699 121.514,345.620 119.245 C 339.382 112.436,335.352 108.881,328.325 103.988 C 327.073 103.117,325.939 102.225,325.804 102.007 C 325.507 101.526,322.000 99.081,322.000 99.355 M100.624 120.700 C 99.847 121.745,99.074 122.780,98.906 123.000 C 98.738 123.220,98.060 124.210,97.400 125.200 C 96.740 126.190,95.975 127.238,95.700 127.529 C 95.425 127.819,95.200 128.292,95.200 128.580 C 95.200 128.867,94.945 129.314,94.634 129.572 C 93.956 130.135,90.275 138.408,90.571 138.704 C 90.685 138.818,90.966 138.391,91.196 137.755 C 92.493 134.169,96.286 127.137,98.399 124.400 C 100.130 122.158,102.422 118.800,102.221 118.800 C 102.120 118.800,101.401 119.655,100.624 120.700 M307.200 133.325 C 307.200 133.482,307.364 133.923,307.565 134.305 C 307.765 134.687,308.299 135.900,308.752 137.000 C 309.827 139.615,309.840 138.838,308.769 136.000 C 308.014 133.998,307.200 132.611,307.200 133.325 M89.669 140.313 C 88.731 142.234,88.702 142.634,89.598 141.306 C 90.078 140.595,90.410 139.835,90.335 139.619 C 90.261 139.403,89.961 139.715,89.669 140.313 M309.600 139.363 C 309.600 139.723,311.730 143.603,311.857 143.476 C 312.035 143.298,310.062 139.200,309.799 139.200 C 309.690 139.200,309.600 139.273,309.600 139.363 M87.888 144.098 C 87.536 144.814,86.850 146.480,86.364 147.800 C 85.878 149.120,85.237 150.767,84.940 151.460 C 84.643 152.154,84.400 153.064,84.400 153.484 C 84.400 153.904,84.136 154.596,83.813 155.024 C 83.490 155.451,83.224 156.160,83.222 156.600 C 83.219 157.077,83.537 156.696,84.009 155.656 C 84.444 154.697,84.800 153.711,84.800 153.464 C 84.800 152.936,86.150 149.358,87.979 145.038 C 88.923 142.808,88.858 142.126,87.888 144.098 M312.017 144.415 C 312.037 145.106,313.559 147.992,313.583 147.385 C 313.592 147.156,313.240 146.263,312.800 145.400 C 312.360 144.537,312.008 144.094,312.017 144.415 M31.971 150.093 C 30.740 152.384,30.183 153.488,28.488 157.000 C 28.169 157.660,28.093 158.020,28.319 157.800 C 28.854 157.278,33.634 147.901,33.456 147.722 C 33.381 147.647,32.713 148.714,31.971 150.093 M313.600 148.887 C 313.600 149.253,313.777 149.662,313.994 149.796 C 314.210 149.930,314.570 150.616,314.792 151.320 L 315.197 152.600 315.004 151.275 C 314.783 149.764,313.600 147.752,313.600 148.887 M368.801 152.056 C 368.801 152.416,369.154 153.136,369.587 153.656 C 370.609 154.883,370.617 154.375,369.601 152.710 C 369.126 151.930,368.802 151.665,368.801 152.056 M315.410 153.400 C 315.567 153.840,315.882 154.920,316.111 155.800 C 316.339 156.680,316.790 157.760,317.112 158.200 L 317.698 159.000 317.410 158.200 C 317.252 157.760,316.870 156.590,316.563 155.600 C 316.255 154.610,315.805 153.530,315.564 153.200 C 315.208 152.714,315.179 152.752,315.410 153.400 M370.414 155.082 C 370.406 155.348,370.903 156.428,371.518 157.482 C 372.133 158.537,372.962 160.266,373.360 161.324 C 373.759 162.383,374.179 163.154,374.295 163.039 C 374.495 162.838,374.054 161.739,372.351 158.200 C 371.165 155.735,370.430 154.551,370.414 155.082 M82.278 159.293 C 81.905 160.078,81.618 161.234,81.640 161.860 C 81.675 162.852,81.728 162.797,82.048 161.431 C 82.251 160.569,82.609 159.630,82.846 159.345 C 83.082 159.060,83.204 158.611,83.115 158.346 C 83.027 158.082,82.650 158.508,82.278 159.293 M27.088 159.663 C 26.696 160.348,26.456 160.990,26.556 161.089 C 26.829 161.362,28.095 159.285,27.938 158.822 C 27.862 158.600,27.479 158.978,27.088 159.663 M317.641 160.056 C 317.618 160.637,317.956 161.897,318.391 162.856 C 318.826 163.815,319.186 164.273,319.191 163.874 C 319.196 163.474,318.989 162.754,318.731 162.274 C 318.472 161.793,318.131 160.860,317.971 160.200 C 317.689 159.027,317.681 159.024,317.641 160.056 M25.419 164.074 C 25.055 165.243,24.587 166.513,24.379 166.895 C 23.865 167.837,23.882 168.802,24.398 168.000 C 24.953 167.138,26.474 162.341,26.261 162.128 C 26.162 162.029,25.784 162.905,25.419 164.074 M80.878 164.287 C 80.642 164.899,80.327 166.210,80.178 167.200 C 80.029 168.190,79.737 169.324,79.528 169.721 C 79.320 170.117,79.213 170.747,79.292 171.121 C 79.370 171.494,79.751 170.540,80.140 169.000 C 80.528 167.460,81.032 165.602,81.260 164.870 C 81.771 163.227,81.467 162.762,80.878 164.287 M374.440 163.913 C 374.395 164.495,375.893 169.089,376.425 170.000 C 376.731 170.524,376.777 170.519,376.788 169.967 C 376.795 169.618,376.676 169.209,376.523 169.057 C 376.371 168.905,375.849 167.570,375.363 166.090 C 374.877 164.611,374.462 163.631,374.440 163.913 M319.232 166.126 C 319.214 166.526,319.391 167.209,319.624 167.645 C 319.857 168.081,320.198 169.194,320.380 170.119 C 320.700 171.740,320.714 171.752,320.756 170.460 C 320.780 169.724,320.546 168.554,320.236 167.860 C 319.926 167.167,319.580 166.330,319.467 166.000 C 319.313 165.546,319.255 165.577,319.232 166.126 M23.164 170.895 C 21.542 175.247,20.779 177.586,20.196 180.000 L 19.954 181.000 20.524 180.000 C 20.838 179.450,21.215 178.333,21.362 177.517 C 21.509 176.701,21.892 175.531,22.212 174.917 C 22.533 174.303,22.796 173.479,22.798 173.086 C 22.799 172.693,23.085 171.937,23.433 171.406 C 23.781 170.874,24.006 170.158,23.933 169.815 C 23.860 169.472,23.514 169.958,23.164 170.895 M376.832 171.340 C 376.795 172.205,378.011 174.922,378.305 174.629 C 378.415 174.519,378.233 173.837,377.901 173.114 C 377.569 172.391,377.200 171.530,377.080 171.200 C 376.916 170.746,376.855 170.780,376.832 171.340 M78.817 173.200 C 78.792 173.970,78.514 175.050,78.200 175.600 C 77.886 176.150,77.634 177.230,77.641 178.000 C 77.653 179.345,77.678 179.321,78.256 177.400 C 79.041 174.796,79.333 172.975,79.073 172.323 C 78.957 172.035,78.843 172.430,78.817 173.200 M321.009 173.200 C 321.129 173.750,321.490 175.640,321.811 177.400 C 322.132 179.160,322.576 181.229,322.798 181.997 C 323.019 182.766,323.201 184.296,323.202 185.397 C 323.203 186.499,323.408 188.120,323.657 189.000 C 323.906 189.880,324.251 191.590,324.423 192.800 L 324.736 195.000 324.629 192.600 C 324.570 191.280,324.321 189.210,324.075 188.000 C 323.829 186.790,323.440 184.450,323.210 182.800 C 322.395 176.962,321.943 174.656,321.370 173.435 C 320.895 172.422,320.831 172.379,321.009 173.200 M378.409 176.126 C 378.404 176.526,378.604 177.233,378.852 177.698 C 379.300 178.534,379.886 180.822,381.014 186.130 C 381.333 187.631,381.787 189.161,382.024 189.530 C 382.377 190.079,382.412 190.020,382.217 189.200 C 382.086 188.650,381.793 187.248,381.566 186.085 C 381.339 184.922,380.894 183.234,380.577 182.335 C 380.260 181.435,380.000 180.292,380.000 179.793 C 380.000 179.295,379.644 178.103,379.209 177.144 C 378.774 176.185,378.414 175.727,378.409 176.126 M19.664 182.113 C 19.629 182.725,19.330 183.872,19.000 184.662 C 18.670 185.451,18.410 186.391,18.422 186.749 C 18.434 187.107,18.803 186.514,19.242 185.431 C 19.681 184.349,19.970 182.909,19.884 182.231 C 19.732 181.030,19.726 181.027,19.664 182.113 M76.674 183.849 C 76.303 185.171,76.025 187.411,76.056 188.826 L 76.112 191.400 76.403 188.368 C 76.562 186.700,76.912 184.673,77.179 183.864 C 77.446 183.055,77.593 182.180,77.506 181.919 C 77.420 181.659,77.045 182.527,76.674 183.849 M18.040 189.600 C 18.003 190.150,17.714 191.050,17.400 191.600 C 17.086 192.150,16.822 193.436,16.814 194.457 C 16.806 195.479,16.534 197.639,16.208 199.257 C 15.592 202.323,14.867 210.272,14.608 216.800 L 14.458 220.600 14.794 217.600 C 14.979 215.950,15.338 211.720,15.591 208.200 C 15.845 204.680,16.209 201.311,16.401 200.714 C 16.592 200.116,16.862 198.316,17.000 196.714 C 17.137 195.111,17.522 193.040,17.854 192.110 C 18.187 191.181,18.380 190.011,18.284 189.510 C 18.116 188.637,18.106 188.641,18.040 189.600 M382.611 193.000 C 382.795 195.406,383.948 199.406,383.982 197.760 C 383.992 197.298,383.807 196.366,383.571 195.689 C 383.335 195.012,382.981 193.590,382.784 192.529 C 382.430 190.616,382.428 190.620,382.611 193.000 M75.429 193.284 C 74.267 197.180,74.382 240.506,75.562 243.800 L 75.992 245.000 75.780 243.600 C 74.824 237.295,74.735 201.474,75.661 195.474 C 76.079 192.761,75.949 191.537,75.429 193.284 M325.089 204.200 C 325.207 206.620,325.371 208.675,325.452 208.767 C 325.723 209.072,325.535 203.830,325.202 201.800 C 324.981 200.456,324.944 201.242,325.089 204.200 M384.199 204.226 C 384.289 206.000,384.552 207.947,384.782 208.552 C 385.470 210.363,385.308 238.434,384.592 241.400 C 384.273 242.720,384.037 244.610,384.066 245.600 C 384.104 246.866,384.166 247.044,384.274 246.200 C 384.359 245.540,384.692 243.676,385.014 242.057 C 385.706 238.580,385.866 210.374,385.207 208.000 C 384.993 207.230,384.642 205.340,384.426 203.800 L 384.034 201.000 384.199 204.226 M325.764 219.000 C 325.763 222.740,325.823 224.324,325.897 222.520 C 325.971 220.715,325.972 217.655,325.898 215.720 C 325.825 213.784,325.764 215.260,325.764 219.000 M14.599 232.000 C 14.923 240.726,16.569 254.740,16.756 250.360 C 16.780 249.788,16.632 248.798,16.426 248.160 C 16.221 247.522,15.845 244.120,15.591 240.600 C 15.338 237.080,14.979 232.850,14.794 231.200 L 14.458 228.200 14.599 232.000 M325.277 230.441 C 325.235 231.454,325.115 233.434,325.011 234.841 L 324.822 237.400 325.229 235.449 C 325.452 234.376,325.572 232.396,325.495 231.049 C 325.376 228.988,325.342 228.892,325.277 230.441 M324.465 243.800 C 324.424 244.680,324.125 246.390,323.800 247.600 C 323.475 248.810,323.239 250.790,323.275 252.000 C 323.336 254.087,323.347 254.108,323.476 252.400 C 323.551 251.410,323.893 249.520,324.236 248.200 C 324.579 246.880,324.788 244.990,324.700 244.000 L 324.540 242.200 324.465 243.800 M76.201 249.200 C 76.343 252.256,77.537 257.205,77.582 254.926 C 77.592 254.445,77.408 253.546,77.172 252.927 C 76.937 252.309,76.587 250.452,76.394 248.801 L 76.044 245.800 76.201 249.200 M383.084 252.737 C 382.708 254.003,382.427 255.751,382.460 256.620 C 382.509 257.902,382.547 257.974,382.663 257.000 C 382.742 256.340,383.097 254.667,383.452 253.282 C 384.272 250.090,383.992 249.676,383.084 252.737 M16.855 253.415 C 16.824 254.546,17.145 256.389,17.586 257.615 C 18.065 258.949,18.377 259.439,18.386 258.874 C 18.394 258.364,18.189 257.554,17.931 257.074 C 17.673 256.593,17.338 255.120,17.186 253.800 L 16.909 251.400 16.855 253.415 M322.311 257.200 C 320.773 264.113,320.660 264.819,321.321 263.397 C 321.629 262.735,322.007 261.295,322.162 260.197 C 322.316 259.098,322.627 257.616,322.851 256.903 C 323.076 256.190,323.196 255.290,323.119 254.903 C 323.041 254.516,322.678 255.550,322.311 257.200 M77.622 258.526 C 77.610 259.146,77.785 259.999,78.011 260.421 C 78.238 260.844,78.674 262.497,78.980 264.095 C 79.759 268.149,80.781 272.056,81.255 272.785 C 81.557 273.249,81.593 273.154,81.405 272.400 C 81.267 271.850,80.911 270.320,80.613 269.000 C 80.314 267.680,79.875 266.093,79.635 265.474 C 79.396 264.855,79.197 263.865,79.194 263.274 C 79.186 261.705,77.649 257.067,77.622 258.526 M381.822 259.284 C 381.478 260.412,380.521 264.574,380.232 266.200 C 379.970 267.672,381.317 263.344,381.960 260.646 C 382.435 258.655,382.330 257.620,381.822 259.284 M18.432 261.726 C 18.414 262.126,18.591 262.809,18.824 263.245 C 19.057 263.681,19.398 264.794,19.580 265.719 C 19.900 267.340,19.914 267.352,19.956 266.060 C 19.980 265.324,19.746 264.154,19.436 263.460 C 19.126 262.767,18.780 261.930,18.667 261.600 C 18.513 261.146,18.455 261.177,18.432 261.726 M320.464 265.713 C 320.429 266.325,320.130 267.472,319.800 268.262 C 319.470 269.051,319.210 269.991,319.222 270.349 C 319.234 270.707,319.603 270.114,320.042 269.031 C 320.481 267.949,320.770 266.509,320.684 265.831 C 320.532 264.630,320.526 264.627,320.464 265.713 M20.191 268.400 C 21.019 271.769,21.697 273.851,22.079 274.200 C 22.391 274.485,22.428 274.369,22.207 273.800 C 22.036 273.360,21.671 272.077,21.396 270.950 C 21.120 269.822,20.681 268.562,20.420 268.150 C 19.996 267.480,19.971 267.507,20.191 268.400 M379.646 268.400 C 379.605 268.950,379.314 269.850,379.000 270.400 C 378.686 270.950,378.426 271.760,378.423 272.200 C 378.420 272.669,378.753 272.261,379.227 271.215 C 379.672 270.234,379.965 268.974,379.878 268.415 L 379.720 267.400 379.646 268.400 M318.846 272.086 C 318.821 272.464,318.545 273.364,318.233 274.086 C 317.921 274.809,317.213 276.840,316.660 278.600 C 316.107 280.360,315.535 282.160,315.389 282.600 C 315.176 283.245,315.208 283.284,315.554 282.800 C 315.790 282.470,316.460 280.670,317.043 278.800 C 317.626 276.930,318.370 274.853,318.697 274.184 C 319.024 273.516,319.202 272.616,319.092 272.184 C 318.932 271.554,318.884 271.534,318.846 272.086 M81.618 274.301 C 81.608 274.797,81.979 275.877,82.441 276.701 C 83.329 278.282,83.257 277.662,82.244 275.000 C 81.805 273.847,81.630 273.652,81.618 274.301 M377.438 275.115 C 377.038 276.003,376.806 276.971,376.923 277.265 C 377.052 277.587,377.149 277.477,377.168 276.989 C 377.186 276.543,377.483 275.773,377.830 275.279 C 378.176 274.784,378.394 274.182,378.313 273.940 C 378.233 273.698,377.839 274.227,377.438 275.115 M22.446 275.256 C 22.421 275.617,22.756 276.697,23.191 277.656 C 23.690 278.755,23.986 279.100,23.991 278.589 C 23.996 278.143,23.752 277.423,23.448 276.989 C 23.145 276.555,22.805 275.840,22.694 275.400 C 22.550 274.826,22.480 274.786,22.446 275.256 M375.799 279.876 C 375.422 280.934,374.929 282.301,374.703 282.913 C 374.477 283.525,374.372 284.106,374.470 284.204 C 374.568 284.302,374.968 283.441,375.358 282.291 C 375.749 281.141,376.263 279.795,376.501 279.301 C 376.740 278.806,376.833 278.300,376.710 278.176 C 376.586 278.053,376.176 278.817,375.799 279.876 M83.209 279.424 C 83.204 279.876,83.464 280.596,83.787 281.024 C 84.110 281.451,84.401 282.160,84.434 282.600 C 84.475 283.164,84.542 283.216,84.661 282.776 C 84.754 282.433,84.467 281.353,84.023 280.376 C 83.508 279.240,83.214 278.897,83.209 279.424 M24.036 279.800 C 24.028 280.020,24.547 281.640,25.188 283.400 C 25.830 285.160,26.359 286.330,26.365 286.000 C 26.379 285.069,24.068 278.916,24.036 279.800 M84.825 284.033 C 84.811 284.382,84.916 284.783,85.057 284.924 C 85.422 285.289,87.196 289.707,87.198 290.256 C 87.199 290.506,87.572 291.136,88.026 291.656 C 88.917 292.675,88.910 292.608,87.861 290.200 C 87.478 289.320,87.018 288.240,86.840 287.800 C 85.852 285.360,84.846 283.481,84.825 284.033 M314.402 285.042 C 313.481 287.441,313.481 287.488,314.402 286.112 C 314.876 285.404,315.204 284.522,315.132 284.154 C 315.050 283.737,314.774 284.073,314.402 285.042 M373.433 286.686 C 373.063 287.519,372.230 289.247,371.581 290.527 C 370.224 293.202,370.097 293.708,371.122 292.354 C 371.979 291.223,374.513 285.579,374.272 285.339 C 374.180 285.247,373.802 285.853,373.433 286.686 M26.403 286.901 C 26.401 287.067,26.760 287.875,27.200 288.696 C 27.640 289.516,27.999 289.921,27.997 289.594 C 27.996 289.267,27.637 288.460,27.200 287.800 C 26.763 287.140,26.404 286.736,26.403 286.901 M312.638 289.516 C 312.238 290.332,311.733 291.342,311.515 291.760 C 311.297 292.178,310.226 294.608,309.135 297.160 C 308.045 299.712,306.796 302.408,306.360 303.150 C 305.924 303.893,305.640 304.574,305.730 304.663 C 305.978 304.911,306.948 303.239,307.970 300.800 C 308.834 298.740,310.326 295.468,312.680 290.474 C 313.231 289.305,313.611 288.278,313.524 288.190 C 313.436 288.103,313.038 288.699,312.638 289.516 M28.000 290.584 C 28.000 290.712,28.418 291.487,28.928 292.308 C 29.439 293.129,30.282 294.690,30.802 295.779 C 31.322 296.867,31.821 297.536,31.912 297.265 C 32.002 296.995,31.858 296.510,31.591 296.189 C 31.325 295.868,30.606 294.546,29.993 293.251 C 29.034 291.222,28.000 289.839,28.000 290.584 M88.800 293.159 C 88.800 293.356,89.340 294.606,90.000 295.937 C 90.660 297.267,91.200 298.553,91.200 298.794 C 91.200 299.160,92.402 301.515,94.978 306.200 C 96.183 308.390,100.240 314.390,100.519 314.395 C 100.695 314.398,100.290 313.603,99.619 312.628 C 98.949 311.653,98.400 310.720,98.400 310.554 C 98.400 310.388,98.055 309.880,97.633 309.426 C 96.334 308.026,93.069 302.026,91.035 297.300 C 89.211 293.063,88.800 292.301,88.800 293.159 M369.500 294.614 C 369.115 295.129,368.801 295.787,368.801 296.075 C 368.802 296.364,369.172 295.995,369.623 295.255 C 370.586 293.675,370.508 293.267,369.500 294.614 M368.065 297.322 C 367.827 297.608,367.490 298.193,367.316 298.622 C 367.045 299.288,365.116 302.701,363.484 305.400 C 363.218 305.840,362.145 307.321,361.100 308.691 C 360.055 310.062,359.200 311.287,359.200 311.415 C 359.200 311.934,360.089 311.043,360.981 309.630 C 361.503 308.804,362.179 307.874,362.484 307.564 C 363.078 306.960,364.866 303.995,367.316 299.550 C 368.760 296.930,369.013 296.180,368.065 297.322 M32.013 298.137 C 32.006 298.322,32.360 298.931,32.800 299.491 C 33.240 300.050,33.600 300.324,33.600 300.098 C 33.600 299.600,32.032 297.661,32.013 298.137 M33.600 301.018 C 33.600 301.164,34.140 302.084,34.800 303.062 C 35.460 304.040,36.012 304.966,36.027 305.120 C 36.041 305.274,36.662 306.210,37.407 307.200 C 38.151 308.190,39.624 310.321,40.680 311.936 C 43.825 316.747,48.672 322.729,53.046 327.200 C 55.306 329.510,57.651 332.030,58.256 332.800 C 59.595 334.505,66.248 340.555,68.308 341.941 C 69.128 342.493,71.510 344.362,73.600 346.094 C 75.690 347.825,77.670 349.459,78.000 349.724 C 79.604 351.014,88.757 356.975,90.745 358.025 C 91.985 358.681,93.720 359.660,94.600 360.203 C 96.943 361.646,104.880 365.654,105.052 365.481 C 105.134 365.399,103.535 364.474,101.500 363.425 C 96.999 361.104,90.990 357.753,89.516 356.743 C 88.920 356.334,88.322 356.000,88.187 356.000 C 87.540 356.000,75.093 347.198,74.591 346.386 C 74.464 346.180,72.254 344.401,69.680 342.434 C 63.698 337.860,52.949 327.262,48.125 321.181 C 47.506 320.401,46.772 319.501,46.494 319.181 C 46.215 318.862,45.585 318.137,45.094 317.570 C 44.602 317.004,43.390 315.235,42.400 313.638 C 41.410 312.042,39.958 309.896,39.174 308.868 C 38.389 307.841,36.972 305.692,36.024 304.093 C 34.436 301.414,33.600 300.354,33.600 301.018 M301.582 310.903 C 291.631 325.987,280.261 338.403,269.817 345.588 C 268.787 346.297,268.036 346.970,268.149 347.082 C 269.061 347.995,286.088 332.262,291.182 325.800 C 292.569 324.040,293.832 322.510,293.988 322.400 C 294.402 322.109,299.387 315.145,299.993 314.012 C 300.277 313.483,300.671 312.859,300.869 312.625 C 301.693 311.654,305.607 305.473,305.479 305.345 C 305.402 305.269,303.649 307.770,301.582 310.903 M357.476 314.100 C 353.196 320.768,338.289 336.602,331.226 341.982 C 329.562 343.250,326.940 345.311,325.400 346.562 C 323.860 347.814,322.330 349.056,322.000 349.322 C 321.670 349.589,319.556 351.036,317.303 352.537 C 315.049 354.039,313.080 355.478,312.926 355.734 C 312.721 356.075,312.801 356.086,313.223 355.776 C 313.540 355.542,315.600 354.156,317.800 352.695 C 320.000 351.235,322.880 349.143,324.200 348.046 C 325.520 346.950,328.580 344.510,331.000 342.623 C 335.918 338.789,339.843 335.169,343.602 331.000 C 344.990 329.460,347.594 326.670,349.387 324.800 C 352.648 321.399,356.683 316.323,358.369 313.500 C 359.727 311.226,359.013 311.706,357.476 314.100 M100.800 314.916 C 100.800 315.566,105.119 321.321,109.966 327.129 C 115.915 334.258,126.054 343.546,132.642 347.901 C 137.924 351.394,140.127 352.800,140.313 352.800 C 140.436 352.800,140.821 353.055,141.169 353.367 C 142.036 354.145,147.285 356.848,147.504 356.630 C 147.601 356.532,146.563 355.888,145.197 355.198 C 143.831 354.509,141.834 353.327,140.760 352.572 C 139.687 351.817,138.712 351.200,138.595 351.200 C 138.356 351.200,132.838 347.581,131.234 346.372 C 120.437 338.238,112.947 330.770,105.139 320.354 C 100.730 314.473,100.800 314.560,100.800 314.916 M266.382 347.986 C 261.705 351.483,251.518 357.087,247.473 358.388 C 246.633 358.659,246.036 358.969,246.146 359.079 C 246.597 359.530,257.005 354.905,258.505 353.587 C 259.013 353.140,261.945 351.299,265.295 349.322 C 266.337 348.707,267.277 347.978,267.382 347.702 C 267.626 347.066,267.605 347.072,266.382 347.986 M311.416 356.375 C 311.288 356.581,310.243 357.223,309.092 357.803 C 307.941 358.382,306.190 359.314,305.200 359.875 C 304.210 360.435,302.370 361.422,301.111 362.067 C 299.852 362.712,298.717 363.411,298.588 363.620 C 298.209 364.233,298.642 364.072,300.800 362.800 C 301.919 362.140,302.943 361.600,303.075 361.600 C 303.207 361.600,304.810 360.700,306.638 359.600 C 308.466 358.500,310.105 357.596,310.281 357.591 C 310.818 357.576,312.633 356.018,312.124 356.009 C 311.862 356.004,311.543 356.169,311.416 356.375 M148.000 356.965 C 148.000 357.254,153.637 359.296,153.849 359.084 C 153.960 358.973,153.095 358.571,151.926 358.192 C 150.757 357.812,149.629 357.344,149.420 357.151 C 149.036 356.796,148.000 356.661,148.000 356.965 M155.704 360.000 C 156.525 360.440,157.423 360.792,157.699 360.783 C 158.373 360.761,155.561 359.238,154.806 359.217 C 154.479 359.208,154.884 359.560,155.704 360.000 M243.200 360.000 C 242.430 360.422,242.026 360.774,242.301 360.783 C 242.577 360.792,243.475 360.440,244.296 360.000 C 245.116 359.560,245.521 359.208,245.194 359.217 C 244.867 359.226,243.970 359.578,243.200 360.000 M159.800 361.585 C 160.680 362.022,161.760 362.376,162.200 362.372 C 162.661 362.368,162.321 362.107,161.400 361.756 C 158.893 360.802,158.040 360.711,159.800 361.585 M237.200 362.009 C 235.330 362.618,232.630 363.494,231.200 363.955 C 228.024 364.979,229.495 364.772,233.600 363.618 C 235.250 363.154,237.242 362.607,238.026 362.402 C 239.654 361.976,242.106 360.780,241.200 360.853 C 240.870 360.880,239.070 361.400,237.200 362.009 M163.750 362.820 C 164.409 363.238,167.368 364.039,170.400 364.619 C 171.950 364.916,168.405 363.599,166.600 363.208 C 165.720 363.017,164.550 362.744,164.000 362.603 C 163.109 362.373,163.081 362.397,163.750 362.820 M294.200 365.625 C 292.660 366.469,290.590 367.469,289.600 367.848 C 287.738 368.561,286.672 369.205,286.928 369.461 C 287.009 369.542,288.910 368.707,291.152 367.604 C 293.394 366.502,295.308 365.600,295.404 365.600 C 295.501 365.600,296.170 365.241,296.890 364.801 C 299.199 363.394,297.100 364.037,294.200 365.625 M173.000 365.191 C 173.880 365.351,175.107 365.689,175.726 365.941 C 176.345 366.193,177.515 366.379,178.326 366.353 C 179.763 366.307,179.753 366.298,177.949 365.993 C 176.930 365.821,175.727 365.482,175.275 365.240 C 174.823 364.998,173.766 364.823,172.926 364.850 L 171.400 364.900 173.000 365.191 M224.668 365.250 C 224.266 365.484,223.096 365.817,222.068 365.991 C 220.259 366.296,220.247 366.307,221.674 366.353 C 222.485 366.379,223.655 366.195,224.274 365.945 C 224.893 365.695,226.030 365.355,226.800 365.191 L 228.200 364.892 226.800 364.858 C 226.030 364.840,225.071 365.016,224.668 365.250 M106.000 366.026 C 107.089 366.777,113.292 369.641,113.462 369.471 C 113.554 369.380,112.947 368.998,112.114 368.623 C 111.281 368.248,109.562 367.414,108.294 366.770 C 106.003 365.608,104.851 365.234,106.000 366.026 M183.800 367.076 C 186.823 368.090,213.324 368.084,216.000 367.068 L 217.800 366.385 216.000 366.629 C 215.010 366.762,213.030 367.030,211.600 367.223 C 208.187 367.683,191.778 367.667,188.200 367.199 C 186.660 366.998,184.590 366.737,183.600 366.619 L 181.800 366.405 183.800 367.076 M115.304 370.400 C 116.125 370.840,117.023 371.192,117.299 371.183 C 117.973 371.161,115.161 369.638,114.406 369.617 C 114.079 369.608,114.484 369.960,115.304 370.400 M283.606 370.423 C 281.792 371.434,282.617 371.425,284.856 370.409 C 285.866 369.951,286.263 369.624,285.800 369.632 C 285.360 369.640,284.373 369.996,283.606 370.423 M119.000 371.811 C 119.660 372.188,120.740 372.643,121.400 372.823 C 122.060 373.003,123.860 373.611,125.400 374.174 C 126.940 374.736,128.650 375.176,129.200 375.152 C 130.007 375.116,130.046 375.073,129.400 374.928 C 128.056 374.627,124.647 373.564,123.800 373.182 C 122.789 372.727,119.654 371.614,118.600 371.337 C 118.160 371.221,118.340 371.434,119.000 371.811 M280.000 371.800 C 279.450 372.114,278.757 372.378,278.460 372.386 C 278.164 372.394,277.354 372.659,276.660 372.975 C 275.967 373.292,274.230 373.912,272.800 374.353 C 271.370 374.794,270.560 375.164,271.000 375.176 C 271.440 375.187,273.060 374.736,274.600 374.174 C 276.140 373.611,277.941 373.011,278.602 372.840 C 280.137 372.442,282.391 371.233,281.600 371.230 C 281.270 371.229,280.550 371.486,280.000 371.800 M130.800 375.535 C 131.327 375.878,133.668 376.606,136.800 377.401 C 137.734 377.638,137.747 377.622,137.000 377.152 C 136.560 376.875,135.300 376.424,134.200 376.149 C 133.100 375.874,131.750 375.535,131.200 375.397 C 130.467 375.212,130.360 375.249,130.800 375.535 M268.000 375.567 C 267.670 375.756,266.680 376.031,265.800 376.180 C 264.920 376.328,263.750 376.719,263.200 377.050 L 262.200 377.650 263.200 377.399 C 267.827 376.235,270.616 375.224,269.200 375.224 C 268.870 375.224,268.330 375.379,268.000 375.567 M139.793 378.053 C 140.669 378.258,141.560 378.600,141.773 378.813 C 141.986 379.026,142.619 379.186,143.180 379.168 C 143.755 379.151,143.938 379.048,143.600 378.933 C 143.270 378.820,142.433 378.474,141.740 378.164 C 141.046 377.854,139.966 377.618,139.340 377.640 C 138.359 377.675,138.422 377.732,139.793 378.053 M257.800 378.422 C 256.702 378.941,256.457 379.182,257.020 379.190 C 257.471 379.195,258.014 379.026,258.227 378.813 C 258.440 378.600,259.331 378.258,260.207 378.053 C 261.616 377.723,261.662 377.679,260.600 377.673 C 259.940 377.668,258.680 378.005,257.800 378.422 M147.185 380.014 C 148.386 380.446,150.096 380.778,150.985 380.750 C 152.576 380.701,152.569 380.696,150.572 380.403 C 149.456 380.239,148.163 379.901,147.698 379.652 C 147.233 379.404,146.436 379.206,145.926 379.214 C 145.361 379.223,145.851 379.535,147.185 380.014 M252.246 379.662 C 251.831 379.903,250.571 380.236,249.446 380.400 C 247.474 380.689,247.458 380.702,249.000 380.744 C 249.880 380.768,251.680 380.441,253.000 380.016 C 254.864 379.416,255.132 379.241,254.200 379.234 C 253.540 379.229,252.661 379.421,252.246 379.662 M153.800 381.228 C 154.460 381.458,156.620 381.894,158.600 382.197 C 160.580 382.499,162.830 382.853,163.600 382.984 C 164.824 383.191,164.879 383.168,164.038 382.800 C 163.215 382.441,159.393 381.757,154.000 381.003 L 152.600 380.808 153.800 381.228 M244.844 381.164 C 244.538 381.358,242.943 381.643,241.299 381.797 C 239.656 381.951,237.566 382.325,236.655 382.629 C 235.037 383.169,235.031 383.178,236.400 382.996 C 242.874 382.138,248.606 380.903,246.400 380.841 C 245.850 380.825,245.150 380.971,244.844 381.164 M169.753 383.650 C 171.707 383.838,173.957 384.172,174.753 384.394 C 175.549 384.615,177.010 384.770,178.000 384.738 C 179.304 384.696,179.469 384.636,178.600 384.519 C 177.940 384.431,176.103 384.098,174.517 383.779 C 172.931 383.461,170.411 383.224,168.917 383.254 L 166.200 383.308 169.753 383.650 M226.000 383.670 C 225.010 383.880,223.300 384.198,222.200 384.376 L 220.200 384.700 222.000 384.748 C 222.990 384.774,224.467 384.610,225.283 384.384 C 226.099 384.157,228.439 383.823,230.483 383.641 L 234.200 383.310 231.000 383.299 C 229.240 383.293,226.990 383.460,226.000 383.670 M193.100 385.099 C 196.895 385.165,203.105 385.165,206.900 385.099 C 210.695 385.034,207.590 384.980,200.000 384.980 C 192.410 384.980,189.305 385.034,193.100 385.099 " stroke="none" fill="#322f2c" fill-rule="evenodd"></path><path id="path4" d="M42.300 12.300 C 62.815 12.357,96.385 12.357,116.900 12.300 C 137.415 12.243,120.630 12.196,79.600 12.196 C 38.570 12.196,21.785 12.243,42.300 12.300 M283.132 12.300 C 303.664 12.357,337.144 12.357,357.532 12.300 C 377.919 12.243,361.120 12.196,320.200 12.196 C 279.280 12.196,262.599 12.243,283.132 12.300 M4.592 49.600 C 4.592 69.510,4.640 77.655,4.700 67.700 C 4.759 57.745,4.759 41.455,4.700 31.500 C 4.640 21.545,4.592 29.690,4.592 49.600 M154.501 18.200 C 154.505 19.080,154.587 19.393,154.683 18.895 C 154.779 18.398,154.775 17.678,154.675 17.295 C 154.575 16.913,154.496 17.320,154.501 18.200 M247.701 44.200 C 247.705 45.080,247.787 45.393,247.883 44.895 C 247.979 44.398,247.975 43.678,247.875 43.295 C 247.775 42.913,247.696 43.320,247.701 44.200 M151.714 54.200 C 151.717 55.300,151.795 55.703,151.887 55.095 C 151.979 54.486,151.977 53.586,151.882 53.095 C 151.787 52.603,151.711 53.100,151.714 54.200 M72.500 55.100 C 83.225 55.159,100.775 55.159,111.500 55.100 C 122.225 55.041,113.450 54.992,92.000 54.992 C 70.550 54.992,61.775 55.041,72.500 55.100 M288.700 55.100 C 299.535 55.159,317.265 55.159,328.100 55.100 C 338.935 55.041,330.070 54.992,308.400 54.992 C 286.730 54.992,277.865 55.041,288.700 55.100 M250.509 80.400 C 250.509 81.390,250.587 81.795,250.682 81.300 C 250.778 80.805,250.778 79.995,250.682 79.500 C 250.587 79.005,250.509 79.410,250.509 80.400 M56.175 117.300 L 55.000 118.600 56.300 117.425 C 57.015 116.779,57.600 116.194,57.600 116.125 C 57.600 115.816,57.270 116.088,56.175 117.300 M15.293 204.000 C 15.293 204.770,15.375 205.085,15.476 204.700 C 15.576 204.315,15.576 203.685,15.476 203.300 C 15.375 202.915,15.293 203.230,15.293 204.000 M325.309 210.400 C 325.309 211.390,325.387 211.795,325.482 211.300 C 325.578 210.805,325.578 209.995,325.482 209.500 C 325.387 209.005,325.309 209.410,325.309 210.400 M74.924 213.800 C 74.926 215.120,75.001 215.612,75.090 214.893 C 75.179 214.174,75.177 213.094,75.086 212.493 C 74.995 211.892,74.922 212.480,74.924 213.800 M14.140 224.400 C 14.140 226.270,14.209 227.035,14.293 226.100 C 14.377 225.165,14.377 223.635,14.293 222.700 C 14.209 221.765,14.140 222.530,14.140 224.400 M74.901 224.600 C 74.905 225.480,74.987 225.793,75.083 225.295 C 75.179 224.798,75.175 224.078,75.075 223.695 C 74.975 223.313,74.896 223.720,74.901 224.600 M325.309 227.200 C 325.309 228.190,325.387 228.595,325.482 228.100 C 325.578 227.605,325.578 226.795,325.482 226.300 C 325.387 225.805,325.309 226.210,325.309 227.200 M15.301 245.000 C 15.305 245.880,15.387 246.193,15.483 245.695 C 15.579 245.198,15.575 244.478,15.475 244.095 C 15.375 243.713,15.296 244.120,15.301 245.000 M208.100 367.476 C 208.485 367.576,209.115 367.576,209.500 367.476 C 209.885 367.375,209.570 367.293,208.800 367.293 C 208.030 367.293,207.715 367.375,208.100 367.476 M183.705 385.087 C 184.314 385.179,185.214 385.177,185.705 385.082 C 186.197 384.987,185.700 384.911,184.600 384.914 C 183.500 384.917,183.097 384.995,183.705 385.087 M214.505 385.087 C 215.114 385.179,216.014 385.177,216.505 385.082 C 216.997 384.987,216.500 384.911,215.400 384.914 C 214.300 384.917,213.897 384.995,214.505 385.087 M196.500 385.497 C 198.205 385.572,200.995 385.572,202.700 385.497 C 204.405 385.422,203.010 385.361,199.600 385.361 C 196.190 385.361,194.795 385.422,196.500 385.497 " stroke="none" fill="#3e3c3c" fill-rule="evenodd"></path></g></svg>